<?xml version="1.0" standalone="no"?>
<!DOCTYPE svg PUBLIC "-//W3C//DTD SVG 20010904//EN"
 "http://www.w3.org/TR/2001/REC-SVG-20010904/DTD/svg10.dtd">
<svg version="1.0" xmlns="http://www.w3.org/2000/svg"
 width="1920.000000pt" height="776.000000pt" viewBox="0 0 1920.000000 776.000000"
 preserveAspectRatio="xMidYMid meet">
<metadata>
Created by potrace 1.16, written by Peter Selinger 2001-2019
</metadata>
<g transform="translate(0.000000,776.000000) scale(0.100000,-0.100000)"
fill="#000000" stroke="none">
<path d="M5 3880 c0 -2137 1 -3011 2 -1942 2 1068 2 2816 0 3885 -1 1068 -2
194 -2 -1943z"/>
<path d="M19195 3880 c0 -2137 1 -3011 2 -1942 2 1068 2 2816 0 3885 -1 1068
-2 194 -2 -1943z"/>
<path d="M11221 6266 c-31 -17 -50 -53 -51 -94 0 -26 9 -43 34 -68 28 -28 41
-34 78 -34 73 0 117 41 118 108 0 36 -5 49 -31 73 -25 24 -40 29 -78 29 -25
-1 -57 -7 -70 -14z"/>
<path d="M13562 5778 l3 -433 95 0 95 0 3 433 2 432 -100 0 -100 0 2 -432z"/>
<path d="M8013 6170 c-62 -37 -79 -109 -43 -180 l20 -38 -323 -444 c-177 -243
-363 -499 -413 -568 -215 -297 -393 -542 -483 -665 -53 -72 -229 -315 -391
-538 -162 -224 -298 -407 -302 -407 -5 0 -8 13 -8 29 0 83 -80 262 -156 349
-158 181 -406 258 -643 202 -230 -55 -416 -238 -475 -467 -21 -80 -21 -246 0
-326 77 -296 366 -505 669 -484 44 3 88 9 98 12 9 4 17 3 17 -1 0 -5 -185
-263 -411 -574 -387 -531 -742 -1021 -1029 -1416 -156 -215 -313 -430 -402
-553 -38 -52 -66 -96 -63 -99 3 -3 7 -3 9 -1 3 4 257 354 631 869 238 328 464
640 541 745 41 55 215 296 388 535 321 443 380 520 397 520 6 0 44 17 86 37
55 27 98 59 152 113 114 112 174 240 190 399 8 73 12 86 49 133 34 45 1044
1434 1347 1853 351 485 510 702 525 718 15 16 21 17 64 5 43 -11 51 -11 83 7
72 39 99 112 68 179 -33 70 -125 97 -192 56z m152 -20 c56 -53 53 -149 -6
-191 -53 -37 -150 -29 -134 12 4 10 18 13 48 11 51 -4 80 21 80 70 0 32 -40
78 -68 78 -54 0 -94 -55 -75 -105 9 -22 8 -32 -4 -43 -12 -13 -16 -10 -31 18
-31 61 -2 144 60 171 34 15 104 3 130 -21z m-2590 -2265 c174 -45 329 -171
404 -326 37 -76 71 -202 71 -259 0 -11 -20 -43 -44 -73 -38 -47 -66 -97 -53
-97 2 0 21 25 43 55 21 30 42 55 45 55 3 0 2 -28 -3 -62 -12 -77 -52 -175
-102 -251 -61 -91 -187 -194 -260 -213 -27 -6 -26 -3 28 70 31 42 53 76 49 76
-11 -1 -60 -39 -50 -40 4 0 -11 -27 -34 -61 -56 -84 -81 -93 -239 -94 -106 0
-136 4 -199 24 -153 50 -289 169 -362 316 -90 183 -89 368 2 555 75 151 214
268 379 317 92 27 237 31 325 8z"/>
<path d="M10645 6167 c-131 -34 -195 -111 -195 -234 0 -120 54 -176 228 -237
134 -47 157 -59 172 -97 19 -44 -2 -79 -56 -98 -37 -13 -44 -12 -80 5 -28 14
-42 28 -49 52 l-9 32 -103 0 -103 0 0 -30 c0 -48 44 -124 92 -159 57 -42 125
-61 218 -61 101 0 166 21 222 70 114 100 106 283 -15 355 -24 13 -92 43 -152
65 -126 47 -155 69 -155 117 0 45 30 73 78 73 44 0 76 -20 97 -61 l16 -30 97
3 97 3 -1 38 c-3 106 -121 195 -270 203 -46 2 -100 -2 -129 -9z"/>
<path d="M13105 5999 c-41 -10 -115 -55 -115 -70 0 -5 -4 -9 -9 -9 -6 0 -11
17 -13 38 l-3 37 -97 3 -98 3 0 -486 0 -486 98 3 97 3 5 198 5 199 25 -27 c55
-60 166 -82 264 -53 57 17 145 107 169 173 54 149 14 343 -86 419 -68 52 -165
74 -242 55z m105 -204 c51 -49 63 -130 30 -202 -48 -108 -205 -112 -255 -6
-20 41 -19 126 2 170 25 54 66 75 136 70 46 -3 63 -9 87 -32z"/>
<path d="M14130 6000 c-105 -18 -192 -83 -230 -172 -31 -72 -38 -181 -16 -261
38 -139 141 -219 291 -225 97 -5 147 7 212 51 50 33 113 116 113 148 0 17 -9
19 -96 19 -93 0 -98 -1 -131 -30 -28 -25 -42 -30 -83 -30 -40 0 -56 5 -80 28
-17 15 -34 42 -39 60 l-10 32 231 0 231 0 -5 83 c-6 95 -30 155 -86 213 -67
69 -192 104 -302 84z m125 -164 c33 -14 65 -59 65 -91 0 -13 -19 -15 -125 -15
-138 0 -142 3 -108 61 32 54 102 72 168 45z"/>
<path d="M11190 5670 l0 -331 95 3 95 3 0 315 c1 173 0 321 0 328 0 9 -26 12
-95 12 l-95 0 0 -330z"/>
<path d="M11532 5673 l3 -328 95 0 95 0 5 205 c3 138 9 212 18 227 21 37 53
53 109 53 43 0 58 -5 84 -28 41 -37 48 -78 49 -290 l0 -173 93 3 92 3 5 205
c3 140 9 212 18 227 28 49 122 69 181 38 51 -26 61 -72 61 -285 l0 -190 95 0
95 0 0 229 c0 246 -6 282 -55 347 -63 83 -218 111 -323 58 -28 -14 -63 -39
-77 -56 l-26 -31 -33 37 c-48 52 -107 76 -189 76 -76 0 -128 -18 -169 -57
l-28 -27 0 42 0 42 -100 0 -100 0 2 -327z"/>
<path d="M15040 4683 c-61 -10 -119 -36 -147 -66 -42 -44 -53 -68 -61 -135 -7
-56 -8 -57 -42 -62 l-35 -5 0 -80 0 -80 38 -3 37 -3 0 -240 0 -239 100 0 100
0 0 239 0 240 53 3 52 3 3 83 3 82 -56 0 c-51 0 -55 2 -55 24 0 35 30 66 67
69 l33 2 0 88 0 87 -32 -1 c-18 -1 -44 -4 -58 -6z"/>
<path d="M16027 4634 c-4 -4 -7 -200 -7 -436 l0 -428 100 0 100 0 -2 433 -3
432 -90 3 c-50 1 -94 0 -98 -4z"/>
<path d="M10460 4180 l0 -410 100 0 100 0 0 410 0 410 -100 0 -100 0 0 -410z"/>
<path d="M14368 4503 l-3 -78 -37 -3 -38 -3 0 -75 c0 -41 -1 -77 -2 -81 -2 -5
16 -9 40 -11 l42 -3 0 -165 c0 -126 4 -173 15 -201 36 -85 90 -112 223 -113
l93 0 -3 83 -3 82 -50 3 c-27 2 -55 8 -62 14 -9 8 -13 50 -13 154 l0 143 63 3
62 3 3 83 3 82 -66 0 -65 0 0 80 0 80 -100 0 -99 0 -3 -77z"/>
<path d="M11120 4419 c-19 -6 -52 -24 -72 -40 -20 -16 -39 -29 -42 -29 -3 0
-6 16 -6 35 l0 35 -100 0 -100 0 0 -324 c0 -290 2 -325 16 -328 9 -2 54 -2 99
0 l84 3 3 197 c4 214 10 242 59 268 16 8 48 14 73 14 36 0 52 -6 77 -28 41
-37 48 -78 49 -287 l0 -170 100 3 100 3 0 206 0 205 34 34 c29 29 41 34 80 34
55 0 90 -15 113 -49 15 -22 18 -55 21 -228 l3 -203 101 0 100 0 -4 233 c-3
210 -5 236 -24 277 -40 86 -142 150 -239 150 -58 0 -131 -29 -179 -71 l-47
-42 -37 35 c-20 20 -52 43 -70 52 -41 21 -145 29 -192 15z"/>
<path d="M12340 4410 c-25 -12 -57 -33 -72 -47 l-28 -27 0 42 0 42 -100 0
-100 0 0 -485 0 -485 100 0 100 0 0 195 c0 107 4 195 8 195 5 0 17 -10 28 -21
33 -37 93 -59 165 -59 118 0 198 50 251 158 31 62 33 73 33 172 0 125 -18 182
-79 248 -56 61 -106 84 -191 89 -56 3 -79 0 -115 -17z m135 -191 c85 -75 65
-222 -38 -275 -64 -34 -152 3 -181 76 -31 78 -15 154 43 203 27 22 42 27 86
27 46 0 59 -5 90 -31z"/>
<path d="M12981 4413 c-63 -22 -133 -95 -161 -169 -31 -81 -32 -215 -1 -295
46 -121 141 -189 262 -189 73 0 120 16 167 54 l29 26 7 -41 6 -40 98 3 97 3 3
328 2 328 -102 -3 c-94 -3 -103 -5 -100 -22 7 -42 -6 -48 -43 -20 -71 54 -175
68 -264 37z m236 -183 c18 -10 39 -33 48 -50 21 -40 21 -129 1 -168 -48 -93
-171 -107 -233 -26 -53 71 -37 204 31 245 41 25 111 25 153 -1z"/>
<path d="M13809 4415 c-81 -26 -139 -73 -178 -145 -35 -63 -36 -68 -36 -175 0
-100 2 -115 28 -167 34 -69 91 -121 166 -149 46 -17 72 -20 146 -17 76 3 98 8
143 33 72 39 121 101 146 183 7 22 7 22 -103 22 -71 0 -111 -4 -111 -10 0 -6
-12 -22 -26 -35 -20 -18 -38 -25 -68 -25 -80 0 -120 54 -120 165 0 84 20 129
68 152 49 23 99 11 133 -32 l28 -35 97 0 c58 0 99 4 103 11 4 6 -7 39 -24 74
-34 68 -81 114 -148 141 -54 23 -186 28 -244 9z"/>
<path d="M15222 4188 c3 -218 5 -236 26 -283 30 -65 56 -93 117 -121 87 -41
193 -30 268 28 l37 29 1 -28 c1 -15 1 -31 0 -35 -2 -13 42 -19 124 -16 l80 3
3 328 2 328 -102 -3 -103 -3 -5 -213 -5 -214 -33 -29 c-67 -60 -177 -28 -202
59 -5 20 -10 119 -10 220 l0 182 -101 0 -101 0 4 -232z"/>
<path d="M15587 3073 c-4 -3 -7 -69 -7 -145 l0 -139 -33 25 c-72 55 -169 71
-259 44 -57 -17 -132 -88 -164 -155 -52 -111 -41 -282 24 -378 93 -135 282
-168 393 -68 l39 35 0 -41 0 -41 100 0 100 0 0 435 0 435 -93 0 c-52 0 -97 -3
-100 -7z m-69 -400 c61 -46 80 -148 42 -223 -50 -99 -195 -97 -247 3 -32 62
-16 164 34 209 45 41 124 46 171 11z"/>
<path d="M10460 2620 l0 -410 100 0 100 0 2 247 3 247 163 -247 164 -247 104
0 104 0 -2 408 -3 407 -102 3 -103 3 -2 -248 -3 -247 -163 247 -163 247 -99 0
-100 0 0 -410z"/>
<path d="M12260 2849 c-196 -88 -241 -409 -81 -569 96 -96 249 -107 356 -26
l35 27 0 -35 0 -36 105 0 105 0 0 325 0 326 -102 -3 -103 -3 -5 -34 c-5 -32
-6 -33 -20 -16 -50 61 -202 84 -290 44z m246 -174 c62 -40 85 -149 46 -225
-48 -96 -191 -96 -244 0 -26 47 -21 147 8 187 45 61 130 78 190 38z"/>
<path d="M13210 2849 c-25 -11 -55 -30 -67 -41 l-23 -21 0 36 0 37 -100 0
-100 0 0 -325 0 -325 100 0 100 0 0 200 c0 215 5 241 52 274 34 24 109 21 143
-6 49 -38 55 -70 55 -278 l0 -190 101 0 101 0 -4 238 c-3 225 -4 239 -26 284
-59 120 -209 173 -332 117z"/>
<path d="M13890 2861 c-121 -37 -197 -128 -220 -263 -28 -161 44 -309 179
-372 68 -31 216 -30 286 2 63 29 110 74 141 134 43 84 39 88 -73 88 l-98 0
-31 -37 c-29 -35 -36 -38 -82 -38 -81 0 -122 54 -122 160 0 102 46 165 122
165 32 0 47 -7 75 -35 l36 -36 102 3 103 3 -20 52 c-26 70 -92 136 -163 162
-58 22 -182 28 -235 12z"/>
<path d="M14578 2855 c-64 -21 -149 -100 -179 -167 -33 -74 -34 -230 -2 -300
30 -66 95 -132 156 -159 75 -34 219 -34 294 0 75 33 163 136 163 191 0 6 -38
10 -101 10 -99 0 -102 -1 -128 -29 -57 -61 -157 -45 -194 31 -10 21 -16 42
-12 48 4 6 89 10 232 10 l226 0 -6 73 c-3 39 -11 89 -18 109 -21 63 -79 130
-144 163 -51 26 -71 30 -149 32 -59 2 -108 -3 -138 -12z m208 -179 c19 -19 34
-43 34 -55 0 -20 -5 -21 -120 -21 -110 0 -120 1 -120 19 0 24 37 70 64 81 11
5 41 9 65 9 36 1 48 -4 77 -33z"/>
<path d="M11330 2642 c0 -245 9 -297 62 -358 83 -95 243 -111 340 -33 20 16
39 29 42 29 3 0 6 -16 6 -35 l0 -35 100 0 100 0 0 325 0 325 -100 0 -100 0 0
-195 c0 -226 -7 -256 -64 -280 -73 -31 -141 -11 -170 49 -13 28 -16 69 -16
230 l0 196 -100 0 -100 0 0 -218z"/>
<path d="M14160 1645 c0 -45 -1 -47 -22 -39 -13 4 -43 8 -67 8 -35 0 -48 -5
-67 -27 -66 -77 -25 -197 68 -197 22 0 49 5 60 11 15 8 22 8 28 -1 4 -7 16
-10 26 -8 18 3 19 14 19 148 0 143 0 145 -22 148 -21 3 -23 -1 -23 -43z m-30
-85 c48 -48 26 -122 -38 -128 -66 -7 -97 74 -47 123 29 30 58 32 85 5z"/>
<path d="M10490 1535 l0 -145 29 0 c29 0 30 2 33 52 2 28 8 53 13 55 6 2 23
-22 38 -52 26 -53 28 -55 68 -55 l41 0 -23 38 c-13 20 -27 44 -32 53 -7 11 -1
23 22 46 33 33 37 55 21 98 -13 35 -65 55 -145 55 l-65 0 0 -145z"/>
<path d="M10809 1657 c-39 -26 -69 -79 -69 -122 0 -78 69 -145 149 -145 85 0
144 60 144 146 0 113 -130 184 -224 121z m121 -47 c28 -15 43 -69 29 -108 -18
-54 -76 -69 -120 -33 -19 15 -24 29 -24 66 0 37 5 51 24 66 25 21 62 25 91 9z"/>
<path d="M11080 1535 l0 -145 30 0 30 0 0 145 0 145 -30 0 -30 0 0 -145z"/>
<path d="M11618 1674 c-5 -4 -8 -70 -8 -146 l0 -138 74 0 c59 0 79 4 107 23
89 59 87 196 -3 243 -33 17 -159 31 -170 18z m165 -74 c26 -29 29 -38 24 -79
-7 -61 -41 -91 -103 -91 l-44 0 0 106 0 107 47 -6 c37 -4 54 -12 76 -37z"/>
<path d="M13030 1536 l0 -146 70 0 c81 0 125 17 134 54 7 30 -7 71 -29 83 -14
8 -13 11 5 28 27 25 26 66 -5 95 -20 19 -39 24 -100 28 l-75 5 0 -147z"/>
<path d="M14434 1661 c-53 -32 -74 -68 -74 -125 0 -98 59 -152 157 -144 42 4
60 11 83 33 17 16 30 32 30 37 0 16 -50 8 -70 -12 -24 -24 -86 -27 -117 -5
-49 35 -50 127 -2 171 29 26 92 25 122 -4 22 -21 67 -31 67 -14 0 19 -35 55
-66 68 -46 19 -93 17 -130 -5z"/>
<path d="M16970 1646 c0 -13 -7 -26 -15 -30 -8 -3 -15 -12 -15 -21 0 -8 7 -15
15 -15 12 0 15 -15 15 -79 0 -92 12 -111 66 -111 27 0 34 4 34 20 0 15 -7 20
-25 20 -24 0 -25 2 -25 75 0 73 1 75 25 75 18 0 25 5 25 20 0 15 -7 20 -25 20
-20 0 -25 5 -25 25 0 20 -5 25 -25 25 -20 0 -25 -5 -25 -24z"/>
<path d="M12148 1615 c-3 -3 13 -55 36 -115 40 -106 42 -110 71 -110 30 0 32
3 68 103 47 127 46 121 21 125 -18 3 -26 -9 -54 -88 -18 -50 -34 -89 -37 -87
-2 2 -16 42 -32 88 -21 64 -32 85 -47 87 -11 2 -22 0 -26 -3z"/>
<path d="M12424 1586 c-28 -28 -34 -42 -34 -75 0 -48 21 -96 49 -111 34 -18
106 -12 135 11 14 11 26 27 26 35 0 19 -34 18 -50 -1 -25 -30 -110 -10 -110
25 0 5 37 10 83 12 l82 3 3 33 c3 26 -3 39 -31 67 -29 29 -42 35 -77 35 -34 0
-48 -6 -76 -34z"/>
<path d="M12660 1505 c0 -106 1 -115 19 -115 17 0 19 9 23 81 3 84 17 109 58
109 41 0 55 -25 58 -109 4 -72 6 -81 23 -81 17 0 19 8 19 90 0 76 -3 93 -20
110 -27 27 -68 35 -104 21 -20 -7 -32 -8 -34 -1 -2 5 -12 10 -23 10 -18 0 -19
-8 -19 -115z"/>
<path d="M13464 1586 c-28 -28 -34 -42 -34 -75 0 -48 21 -96 49 -111 25 -13
87 -13 112 0 13 7 19 7 19 0 0 -5 11 -10 25 -10 l25 0 0 115 c0 109 -1 115
-20 115 -11 0 -23 -7 -26 -15 -5 -13 -8 -13 -27 0 -38 26 -85 19 -123 -19z
m120 -27 c31 -24 36 -81 9 -111 -23 -26 -78 -24 -97 4 -23 33 -20 83 6 108 28
25 48 25 82 -1z"/>
<path d="M13727 1613 c-4 -3 -7 -55 -7 -115 l0 -108 25 0 c25 0 25 1 25 78 0
85 14 112 57 112 39 0 53 -31 53 -113 0 -75 1 -77 25 -77 25 0 25 1 25 86 0
81 -1 87 -29 115 -32 31 -86 40 -109 17 -9 -9 -15 -9 -24 0 -13 13 -31 16 -41
5z"/>
<path d="M14724 1601 c-63 -39 -69 -138 -13 -185 33 -28 102 -36 140 -16 27
15 49 63 49 109 0 87 -101 140 -176 92z m106 -41 c25 -25 27 -86 3 -112 -23
-26 -78 -24 -97 4 -23 33 -20 75 9 103 29 30 58 32 85 5z"/>
<path d="M14950 1505 l0 -115 25 0 c25 0 25 1 25 78 0 64 4 82 18 95 25 22 48
21 72 -3 16 -16 20 -33 20 -95 0 -73 1 -75 25 -75 25 0 25 1 25 78 0 85 14
112 58 112 36 0 52 -37 52 -117 0 -72 0 -73 26 -73 l26 0 -4 91 c-3 85 -5 92
-31 115 -34 29 -85 32 -118 5 -24 -19 -25 -19 -48 0 -25 21 -72 25 -101 9 -13
-7 -21 -7 -25 0 -3 5 -15 10 -26 10 -18 0 -19 -8 -19 -115z"/>
<path d="M15377 1613 c-4 -3 -7 -55 -7 -115 l0 -108 25 0 c24 0 25 2 25 75 0
81 18 115 59 115 39 0 51 -26 51 -111 0 -78 0 -79 25 -79 24 0 25 2 25 75 0
62 4 79 20 95 54 54 100 4 100 -111 0 -52 2 -59 20 -59 18 0 20 7 20 80 0 89
-11 123 -47 139 -36 16 -67 13 -97 -10 l-26 -20 -26 20 c-30 23 -65 27 -97 10
-16 -9 -22 -9 -25 0 -4 12 -35 15 -45 4z"/>
<path d="M15800 1530 c0 -83 2 -93 25 -115 22 -23 31 -25 102 -22 l78 2 0 110
c0 106 -1 110 -22 113 -22 3 -23 0 -23 -70 0 -87 -16 -118 -60 -118 -44 0 -60
31 -60 117 0 66 -2 73 -20 73 -19 0 -20 -7 -20 -90z"/>
<path d="M16067 1613 c-4 -3 -7 -55 -7 -115 l0 -108 25 0 c24 0 25 2 25 75 0
62 4 79 20 95 23 23 49 25 75 6 14 -10 19 -30 23 -95 4 -71 7 -81 23 -81 17 0
19 9 19 88 0 75 -3 92 -20 110 -27 29 -66 38 -104 23 -20 -7 -32 -8 -34 -1 -4
11 -35 14 -45 3z"/>
<path d="M16474 1601 c-62 -38 -68 -139 -12 -186 45 -38 110 -35 151 7 32 33
32 33 9 36 -13 2 -32 -4 -41 -12 -10 -9 -32 -16 -49 -16 -58 0 -82 72 -41 124
25 32 50 33 89 5 17 -13 35 -19 45 -15 16 6 16 9 3 29 -32 48 -101 61 -154 28z"/>
<path d="M16704 1586 c-28 -28 -34 -42 -34 -75 0 -48 21 -96 49 -111 25 -13
87 -13 112 0 13 7 19 7 19 0 0 -5 11 -10 25 -10 l25 0 0 115 c0 109 -1 115
-20 115 -11 0 -23 -7 -26 -15 -5 -13 -8 -13 -27 0 -38 26 -85 19 -123 -19z
m126 -26 c25 -25 27 -86 3 -112 -23 -26 -78 -24 -97 4 -25 35 -20 83 10 107
33 26 58 27 84 1z"/>
<path d="M17274 1610 c-57 -23 -82 -107 -49 -170 20 -38 43 -50 99 -50 61 0
105 37 113 96 12 93 -75 160 -163 124z m91 -55 c47 -46 23 -125 -37 -125 -44
0 -68 25 -68 72 0 71 58 101 105 53z"/>
<path d="M17487 1613 c-4 -3 -7 -55 -7 -115 l0 -108 25 0 c24 0 25 2 25 75 0
81 18 115 59 115 39 0 51 -26 51 -111 0 -78 0 -79 25 -79 25 0 25 1 25 80 0
43 -5 90 -11 103 -19 42 -78 59 -122 36 -16 -9 -22 -9 -25 0 -4 12 -35 15 -45
4z"/>
<path d="M17765 1595 c-46 -45 -26 -82 58 -111 34 -11 47 -21 47 -35 0 -15 -7
-19 -35 -19 -22 0 -38 6 -41 15 -7 19 -54 20 -54 2 0 -8 10 -23 23 -35 31 -30
108 -31 137 -2 41 41 18 86 -56 110 -36 12 -49 22 -49 36 0 24 46 31 65 10 7
-9 23 -16 36 -16 21 0 22 2 13 24 -23 50 -104 62 -144 21z"/>
</g>
</svg>
