<?xml version="1.0" standalone="no"?>
<!DOCTYPE svg PUBLIC "-//W3C//DTD SVG 20010904//EN"
 "http://www.w3.org/TR/2001/REC-SVG-20010904/DTD/svg10.dtd">
<svg version="1.0" xmlns="http://www.w3.org/2000/svg"
 width="1920.000000pt" height="776.000000pt" viewBox="0 0 1920.000000 776.000000"
 preserveAspectRatio="xMidYMid meet">
<metadata>
Created by potrace 1.16, written by Peter Selinger 2001-2019
</metadata>
<g transform="translate(0.000000,776.000000) scale(0.100000,-0.100000)"
fill="#000000" stroke="none">
<path d="M5 3880 c0 -2137 1 -3011 2 -1942 2 1068 2 2816 0 3885 -1 1068 -2
194 -2 -1943z"/>
<path d="M19195 3880 c0 -2137 1 -3011 2 -1942 2 1068 2 2816 0 3885 -1 1068
-2 194 -2 -1943z"/>
<path d="M11199 6251 c-23 -24 -29 -38 -29 -73 1 -67 44 -108 115 -108 82 0
138 66 115 136 -17 51 -53 74 -117 74 -47 0 -59 -4 -84 -29z"/>
<path d="M13562 5778 l3 -433 98 -3 97 -3 0 436 0 435 -100 0 -100 0 2 -432z"/>
<path d="M10635 6167 c-129 -43 -185 -114 -185 -234 0 -127 58 -184 248 -247
121 -41 155 -66 155 -117 0 -45 -32 -69 -94 -69 -54 0 -84 20 -95 65 -6 25 -7
25 -115 25 l-108 0 5 -32 c10 -53 43 -116 77 -144 126 -107 363 -105 471 2 92
93 97 233 11 320 -41 40 -61 50 -250 119 -62 23 -95 55 -95 94 0 35 39 71 77
71 39 0 84 -29 95 -61 l10 -29 103 0 c57 0 106 3 108 8 10 16 -22 105 -50 140
-16 20 -55 50 -86 66 -48 24 -71 29 -149 32 -60 3 -107 -1 -133 -9z"/>
<path d="M11867 5999 c-46 -11 -89 -33 -106 -53 -21 -25 -31 -19 -31 19 l0 35
-100 0 -100 0 0 -330 0 -330 99 0 100 0 3 208 c3 228 8 247 69 272 45 19 116
7 148 -24 l26 -26 5 -213 5 -212 98 -3 97 -3 0 183 c0 101 5 200 10 220 6 20
25 49 42 63 28 24 39 27 85 23 62 -5 98 -33 113 -87 5 -20 10 -118 10 -219 l0
-183 98 3 97 3 0 230 c0 220 -1 232 -24 283 -43 97 -133 149 -251 146 -69 -2
-119 -24 -174 -74 l-43 -39 -22 29 c-45 61 -169 100 -254 79z"/>
<path d="M13099 6001 c-40 -13 -72 -32 -101 -59 l-28 -26 0 42 0 42 -100 0
-100 0 0 -485 0 -485 100 0 100 0 0 195 0 195 45 -34 c60 -46 136 -63 209 -47
146 33 236 159 236 332 0 190 -111 326 -275 335 -33 2 -72 0 -86 -5z m88 -191
c93 -56 88 -230 -7 -282 -99 -52 -210 21 -210 139 0 70 35 133 85 153 36 15
99 11 132 -10z"/>
<path d="M14113 6000 c-91 -19 -165 -77 -211 -165 -25 -45 -27 -60 -27 -160 0
-100 2 -115 28 -167 55 -111 156 -171 292 -172 90 -1 160 24 220 76 37 33 95
119 95 143 0 3 -47 5 -104 5 -103 0 -105 -1 -134 -30 -26 -25 -38 -30 -79 -30
-55 0 -86 17 -108 60 -32 62 -37 60 209 60 l225 0 3 33 c9 99 -33 221 -97 274
-75 64 -208 95 -312 73z m157 -178 c31 -23 56 -70 43 -83 -5 -5 -61 -8 -124
-7 l-114 3 3 24 c8 76 123 113 192 63z"/>
<path d="M11190 5670 l0 -331 98 3 97 3 3 328 2 327 -100 0 -100 0 0 -330z"/>
<path d="M5245 5260 c-357 -37 -710 -177 -1000 -399 -97 -74 -271 -248 -349
-351 -168 -218 -288 -466 -350 -720 -29 -123 -56 -313 -56 -406 l0 -64 -878 0
-878 0 -19 43 c-65 138 -255 100 -255 -51 0 -143 201 -178 256 -45 l14 33 880
0 880 0 0 -52 c0 -77 18 -218 41 -333 55 -265 179 -538 348 -765 69 -93 232
-263 326 -340 433 -354 1007 -504 1569 -409 865 147 1525 866 1605 1749 6 63
11 123 11 133 0 16 50 17 904 17 l904 0 10 -30 c13 -35 58 -80 81 -80 9 0 3 8
-16 20 -33 20 -53 48 -53 74 0 26 36 18 68 -14 61 -60 130 -23 123 65 -3 28
-38 55 -72 55 -31 0 -69 -30 -69 -55 0 -10 -10 -15 -30 -15 -36 0 -38 15 -7
61 41 61 105 76 165 39 32 -20 62 -71 62 -106 0 -31 -34 -87 -64 -105 -17 -10
-25 -19 -18 -19 21 0 80 63 88 93 17 69 -33 150 -101 163 -73 13 -137 -21
-156 -87 l-12 -39 -902 0 -902 0 -12 141 c-69 829 -621 1506 -1413 1734 -203
59 -512 86 -723 65z m376 -80 c643 -65 1200 -452 1492 -1035 114 -228 171
-445 192 -732 l7 -93 -124 0 -124 0 -12 133 c-20 218 -68 389 -163 582 -189
384 -533 682 -938 815 -189 61 -275 74 -506 74 -180 0 -225 -3 -315 -23 -153
-33 -268 -73 -415 -146 -504 -249 -850 -770 -882 -1325 l-6 -110 -129 0 -128
0 0 68 c1 154 42 370 105 552 282 807 1097 1325 1946 1240z m92 -290 c332 -56
608 -201 853 -445 239 -238 375 -488 446 -818 30 -140 32 -443 4 -592 -138
-744 -760 -1282 -1516 -1312 -705 -28 -1350 423 -1574 1101 -58 174 -70 263
-70 496 0 237 12 316 75 503 184 552 663 966 1235 1066 153 27 393 28 547 1z
m-4064 -1464 c53 -28 84 -106 41 -106 -11 0 -20 7 -20 15 0 23 -41 55 -72 55
-36 0 -78 -40 -78 -75 0 -33 42 -75 75 -75 16 0 38 12 57 30 29 30 58 39 58
20 0 -44 -67 -100 -120 -100 -60 0 -120 61 -120 122 0 97 95 157 179 114z
m2184 -231 c28 -374 181 -720 439 -990 328 -344 772 -523 1238 -502 165 8 289
30 432 77 421 140 748 422 947 819 93 183 141 357 163 579 l12 122 117 0 c65
0 120 -4 124 -9 9 -15 -14 -236 -36 -346 -88 -441 -356 -859 -724 -1130 -198
-146 -399 -240 -649 -306 -927 -241 -1904 283 -2221 1191 -62 178 -104 398
-105 543 l0 58 128 -3 127 -3 8 -100z"/>
<path d="M6129 3822 c93 -147 134 -294 133 -472 -2 -332 -188 -620 -494 -765
-111 -52 -178 -67 -328 -72 -113 -4 -149 -2 -222 16 -158 37 -285 108 -413
230 l-70 66 60 -63 c185 -196 390 -285 650 -284 291 1 546 140 709 386 150
226 178 536 72 798 -26 65 -77 153 -113 195 -13 16 -6 0 16 -35z"/>
<path d="M14960 4659 c-24 -11 -53 -28 -63 -37 -31 -28 -56 -87 -63 -146 -7
-56 -7 -56 -40 -56 l-34 0 0 -79 0 -80 33 -3 32 -3 3 -242 2 -243 100 0 100 0
0 245 0 245 53 0 54 0 -1 78 -1 77 -52 3 c-51 3 -53 4 -53 32 0 33 40 70 76
70 23 0 24 3 24 80 l0 80 -62 0 c-42 0 -78 -7 -108 -21z"/>
<path d="M16020 4200 l0 -430 100 0 100 0 -2 428 -3 427 -97 3 -98 3 0 -431z"/>
<path d="M10460 4180 l0 -410 100 0 100 0 0 410 0 410 -100 0 -100 0 0 -410z"/>
<path d="M14368 4503 l-3 -78 -37 -3 -38 -3 0 -79 0 -79 38 -3 37 -3 5 -175
c4 -144 8 -182 24 -213 34 -70 97 -97 222 -97 l84 0 0 79 0 79 -55 4 c-31 3
-61 10 -68 17 -8 8 -12 57 -12 159 l0 147 68 3 68 3 -3 77 -3 77 -65 5 -65 5
-3 78 -3 77 -94 0 -94 0 -3 -77z"/>
<path d="M11143 4419 c-48 -9 -94 -31 -112 -53 -21 -25 -31 -19 -31 19 l0 35
-100 0 -100 0 0 -325 0 -325 99 0 100 0 3 204 c3 233 8 248 86 276 37 13 47
13 85 0 34 -12 46 -24 65 -60 20 -41 22 -57 22 -232 l0 -188 94 0 94 0 4 198
c3 177 5 201 23 232 30 50 89 70 147 50 78 -28 83 -43 86 -276 l3 -204 101 0
100 0 -4 228 c-4 211 -6 231 -27 280 -43 96 -120 143 -236 144 -82 1 -154 -29
-199 -83 l-27 -32 -29 35 c-52 63 -155 95 -247 77z"/>
<path d="M12359 4415 c-26 -8 -61 -28 -79 -45 -18 -16 -34 -30 -36 -30 -2 0
-4 18 -4 40 l0 40 -100 0 -100 0 0 -479 0 -480 88 -3 c48 -2 93 -2 100 0 9 3
12 52 12 199 l0 195 40 -35 c51 -43 113 -61 188 -54 166 15 272 163 259 361
-6 94 -30 157 -82 214 -68 76 -189 108 -286 77z m87 -174 c77 -35 106 -144 62
-231 -40 -77 -131 -103 -199 -57 -97 64 -90 235 11 288 44 24 74 24 126 0z"/>
<path d="M12994 4412 c-62 -22 -101 -51 -136 -103 -47 -69 -61 -129 -56 -237
4 -84 8 -105 36 -158 51 -100 136 -154 241 -154 67 0 114 16 166 55 l45 35 0
-40 0 -40 95 0 95 0 0 325 0 325 -95 0 -95 0 0 -40 c0 -47 -8 -49 -41 -14 -53
56 -168 77 -255 46z m200 -166 c18 -8 46 -30 61 -51 38 -49 42 -141 7 -196
-40 -66 -126 -88 -190 -49 -50 31 -72 75 -72 146 0 72 26 119 80 146 42 22 70
22 114 4z"/>
<path d="M13850 4424 c-101 -19 -190 -88 -232 -179 -19 -41 -23 -67 -23 -150
0 -94 2 -105 33 -168 58 -117 164 -174 312 -165 117 7 217 69 261 163 34 73
32 75 -77 75 l-95 0 -33 -35 c-29 -30 -40 -35 -79 -35 -79 0 -127 61 -127 161
0 64 12 100 45 135 25 26 40 34 68 34 46 0 83 -17 102 -47 15 -22 21 -23 120
-23 l104 0 -16 45 c-21 62 -91 137 -154 164 -50 22 -157 35 -209 25z"/>
<path d="M15230 4192 c0 -186 3 -237 16 -277 52 -151 254 -203 390 -100 18 14
35 25 38 25 3 0 6 -16 6 -35 l0 -36 98 3 97 3 -3 310 c-1 171 -2 316 -2 323 0
9 -26 12 -95 12 l-95 0 0 -192 c0 -234 -9 -265 -83 -293 -41 -15 -51 -16 -89
-4 -33 11 -48 23 -65 54 -21 38 -23 51 -23 238 l0 197 -95 0 -95 0 0 -228z"/>
<path d="M15587 3073 c-4 -3 -7 -69 -7 -145 l0 -139 -33 25 c-52 40 -101 56
-169 56 -166 0 -288 -142 -288 -334 0 -185 108 -321 265 -333 79 -7 137 10
186 54 l39 35 0 -41 0 -41 100 0 100 0 0 435 0 435 -93 0 c-52 0 -97 -3 -100
-7z m-69 -400 c61 -46 80 -148 42 -223 -50 -98 -195 -97 -246 2 -32 61 -15
167 33 210 45 41 124 46 171 11z"/>
<path d="M10458 2620 l-3 -410 102 0 103 0 2 247 3 247 163 -247 163 -247 105
0 104 0 -2 408 -3 407 -102 3 -103 3 -2 -248 -3 -247 -163 247 -163 247 -99 0
-100 0 -2 -410z"/>
<path d="M12260 2849 c-154 -70 -219 -276 -148 -468 65 -172 279 -236 423
-127 l35 27 0 -35 0 -36 105 0 105 0 0 325 0 325 -105 0 -105 0 0 -37 0 -36
-22 21 c-67 62 -200 81 -288 41z m246 -174 c64 -41 87 -162 44 -232 -54 -90
-191 -86 -242 7 -26 47 -21 147 8 187 45 61 130 78 190 38z"/>
<path d="M13210 2849 c-25 -11 -55 -30 -67 -41 l-23 -21 0 36 0 37 -100 0
-100 0 0 -325 0 -325 100 0 100 0 0 200 c0 215 5 241 52 274 34 24 109 21 143
-6 49 -38 55 -70 55 -278 l0 -190 101 0 101 0 -4 238 c-3 225 -4 239 -26 284
-59 120 -209 173 -332 117z"/>
<path d="M13890 2861 c-121 -37 -197 -128 -220 -263 -28 -161 44 -309 179
-372 68 -31 216 -30 288 3 82 36 163 137 163 201 0 19 -6 20 -97 20 l-98 0
-31 -37 c-29 -35 -36 -38 -82 -38 -81 0 -122 54 -122 160 0 102 46 165 123
165 32 0 46 -6 73 -35 l33 -35 105 0 105 0 -14 39 c-32 91 -94 154 -184 186
-46 16 -176 19 -221 6z"/>
<path d="M14578 2854 c-64 -19 -149 -98 -179 -166 -33 -74 -33 -230 -1 -300
30 -66 93 -132 155 -159 75 -34 219 -34 294 0 75 33 163 136 163 191 0 6 -37
10 -99 10 -95 0 -99 -1 -129 -29 -41 -40 -90 -48 -139 -25 -39 19 -81 83 -68
104 4 6 89 10 232 10 l226 0 -6 76 c-14 193 -135 305 -325 303 -42 0 -98 -7
-124 -15z m208 -178 c19 -19 34 -43 34 -55 0 -20 -5 -21 -124 -21 l-125 0 10
30 c18 50 63 80 121 80 44 0 54 -4 84 -34z"/>
<path d="M11330 2642 c0 -244 8 -291 61 -355 17 -21 50 -47 72 -60 82 -43 236
-23 286 37 21 25 31 19 31 -19 l0 -35 100 0 100 0 0 325 0 325 -100 0 -100 0
0 -195 c0 -226 -7 -256 -64 -280 -73 -31 -141 -11 -170 49 -13 28 -16 69 -16
230 l0 196 -100 0 -100 0 0 -218z"/>
<path d="M14160 1644 c0 -44 -1 -46 -22 -38 -13 4 -43 8 -67 8 -35 0 -48 -5
-67 -27 -66 -77 -25 -197 68 -197 22 0 49 5 61 11 16 9 22 9 25 0 2 -6 12 -11
23 -11 18 0 19 9 19 150 0 143 -1 150 -20 150 -17 0 -20 -7 -20 -46z m-29 -83
c48 -39 19 -131 -43 -131 -63 0 -91 78 -43 125 29 30 55 32 86 6z"/>
<path d="M10490 1535 l0 -145 29 0 c29 0 30 2 33 52 2 28 8 53 13 55 6 2 23
-22 38 -52 26 -53 28 -55 68 -55 l41 0 -23 38 c-13 20 -27 44 -32 53 -7 11 -1
23 22 46 33 33 37 55 21 98 -13 35 -65 55 -145 55 l-65 0 0 -145z"/>
<path d="M10809 1657 c-39 -26 -69 -79 -69 -122 0 -78 69 -145 149 -145 85 0
144 60 144 146 0 113 -130 184 -224 121z m121 -47 c28 -15 43 -69 29 -108 -18
-54 -76 -69 -120 -33 -19 15 -24 29 -24 66 0 37 5 51 24 66 25 21 62 25 91 9z"/>
<path d="M11080 1535 l0 -145 30 0 30 0 0 145 0 145 -30 0 -30 0 0 -145z"/>
<path d="M11618 1674 c-5 -4 -8 -70 -8 -146 l0 -138 74 0 c59 0 79 4 107 23
89 59 87 196 -3 243 -33 17 -159 31 -170 18z m137 -50 c40 -19 60 -61 52 -112
-9 -52 -46 -82 -103 -82 l-44 0 0 105 0 105 31 0 c17 0 46 -7 64 -16z"/>
<path d="M13030 1536 l0 -146 70 0 c82 0 125 18 134 55 7 28 -17 85 -36 85 -6
0 -2 10 10 23 29 31 28 68 -3 97 -20 19 -39 24 -100 28 l-75 5 0 -147z"/>
<path d="M14434 1661 c-53 -32 -74 -68 -74 -125 0 -98 59 -152 157 -144 42 4
60 11 83 33 17 16 30 32 30 37 0 16 -50 8 -70 -12 -24 -24 -86 -27 -117 -5
-49 35 -50 127 -2 171 29 26 92 25 122 -4 22 -21 67 -31 67 -14 0 19 -35 55
-66 68 -46 19 -93 17 -130 -5z"/>
<path d="M16970 1646 c0 -13 -7 -26 -15 -30 -8 -3 -15 -12 -15 -21 0 -8 7 -15
15 -15 12 0 15 -15 15 -78 0 -90 14 -112 68 -112 25 0 32 4 32 20 0 15 -7 20
-25 20 -24 0 -25 2 -25 75 0 73 1 75 25 75 18 0 25 5 25 20 0 15 -7 20 -25 20
-20 0 -25 5 -25 25 0 20 -5 25 -25 25 -20 0 -25 -5 -25 -24z"/>
<path d="M12150 1608 c0 -7 16 -59 37 -115 37 -100 39 -103 68 -103 30 0 32 3
68 103 47 127 46 121 21 125 -18 3 -26 -9 -54 -88 -18 -50 -34 -89 -37 -87 -2
2 -16 42 -32 88 -22 68 -32 85 -49 87 -13 2 -22 -2 -22 -10z"/>
<path d="M12424 1586 c-28 -28 -34 -42 -34 -75 0 -48 21 -96 49 -111 34 -18
106 -12 135 11 14 11 26 27 26 35 0 19 -34 18 -50 -1 -25 -30 -110 -10 -110
25 0 5 37 10 83 12 l82 3 3 33 c3 26 -3 39 -31 67 -29 29 -42 35 -77 35 -34 0
-48 -6 -76 -34z"/>
<path d="M12660 1505 c0 -106 1 -115 19 -115 17 0 19 9 23 81 3 84 17 109 58
109 41 0 55 -25 58 -109 4 -72 6 -81 23 -81 17 0 19 8 19 90 0 76 -3 93 -20
110 -27 27 -68 35 -104 21 -20 -7 -32 -8 -34 -1 -2 5 -12 10 -23 10 -18 0 -19
-8 -19 -115z"/>
<path d="M13464 1586 c-28 -28 -34 -42 -34 -75 0 -48 21 -96 49 -111 25 -13
87 -13 112 0 13 7 19 7 19 0 0 -5 11 -10 25 -10 l25 0 0 115 c0 109 -1 115
-20 115 -11 0 -23 -7 -26 -15 -5 -13 -8 -13 -27 0 -38 26 -85 19 -123 -19z
m123 -28 c28 -26 31 -82 6 -110 -23 -26 -78 -24 -97 4 -23 33 -20 83 6 108 28
26 56 25 85 -2z"/>
<path d="M13727 1613 c-4 -3 -7 -55 -7 -115 l0 -108 25 0 c25 0 25 1 25 78 0
85 14 112 57 112 39 0 53 -31 53 -113 0 -75 1 -77 25 -77 25 0 25 1 25 86 0
81 -1 87 -29 115 -31 30 -61 36 -105 19 -16 -6 -27 -6 -31 0 -7 11 -29 13 -38
3z"/>
<path d="M14724 1601 c-63 -39 -69 -138 -13 -185 23 -20 42 -26 77 -26 73 1
112 42 112 119 0 87 -101 140 -176 92z m106 -41 c25 -25 27 -86 3 -112 -23
-26 -78 -24 -97 4 -23 33 -20 75 9 103 29 30 58 32 85 5z"/>
<path d="M14950 1505 l0 -115 25 0 c25 0 25 1 25 78 0 64 4 82 18 95 25 22 48
21 72 -3 16 -16 20 -33 20 -95 0 -73 1 -75 25 -75 25 0 25 1 25 78 0 64 4 82
18 95 25 22 48 21 72 -3 16 -16 20 -33 20 -95 0 -73 1 -75 25 -75 24 0 25 2
25 75 0 110 -28 155 -98 155 -16 0 -40 -9 -53 -19 -24 -19 -25 -19 -48 0 -26
21 -72 25 -104 8 -16 -9 -22 -9 -25 0 -2 6 -12 11 -23 11 -18 0 -19 -8 -19
-115z"/>
<path d="M15377 1613 c-4 -3 -7 -55 -7 -115 l0 -108 25 0 c24 0 25 2 25 75 0
81 18 115 59 115 39 0 51 -26 51 -111 0 -78 0 -79 25 -79 24 0 25 2 25 75 0
62 4 79 20 95 54 54 100 4 100 -111 0 -52 2 -59 20 -59 19 0 20 7 20 88 -1 90
-7 109 -47 130 -32 18 -67 14 -97 -9 l-26 -20 -26 20 c-30 23 -65 27 -97 10
-16 -9 -22 -9 -25 0 -4 12 -35 15 -45 4z"/>
<path d="M15800 1530 c0 -83 2 -93 24 -115 22 -21 32 -24 103 -23 l78 1 -3
114 c-3 104 -5 113 -23 113 -17 0 -19 -7 -19 -73 0 -86 -16 -117 -60 -117 -44
0 -60 31 -60 117 0 66 -2 73 -20 73 -19 0 -20 -7 -20 -90z"/>
<path d="M16067 1613 c-4 -3 -7 -55 -7 -115 l0 -108 25 0 c24 0 25 2 25 75 0
62 4 79 20 95 23 23 49 25 75 6 14 -10 19 -30 23 -95 4 -71 7 -81 23 -81 17 0
19 9 19 88 0 75 -3 92 -20 110 -27 29 -66 38 -104 23 -20 -7 -32 -8 -34 -1 -4
11 -35 14 -45 3z"/>
<path d="M16474 1601 c-62 -38 -68 -139 -12 -186 45 -38 110 -35 151 7 32 33
32 33 9 36 -13 2 -32 -4 -41 -12 -26 -24 -77 -20 -95 6 -43 61 18 159 73 119
61 -44 101 -35 59 14 -32 37 -100 44 -144 16z"/>
<path d="M16704 1586 c-28 -28 -34 -42 -34 -75 0 -48 21 -96 49 -111 25 -13
87 -13 112 0 13 7 19 7 19 0 0 -5 11 -10 25 -10 l25 0 0 115 c0 109 -1 115
-20 115 -11 0 -23 -7 -26 -15 -5 -13 -8 -13 -27 0 -38 26 -85 19 -123 -19z
m126 -26 c25 -25 27 -86 3 -112 -23 -26 -78 -24 -97 4 -25 35 -20 83 10 107
33 26 58 27 84 1z"/>
<path d="M17274 1610 c-57 -23 -82 -107 -49 -170 20 -38 43 -50 99 -50 61 0
105 37 113 96 12 93 -75 160 -163 124z m91 -55 c47 -46 23 -125 -37 -125 -44
0 -68 25 -68 72 0 71 58 101 105 53z"/>
<path d="M17487 1613 c-4 -3 -7 -55 -7 -115 l0 -108 25 0 c24 0 25 2 25 75 0
81 18 115 59 115 39 0 51 -26 51 -111 0 -78 0 -79 25 -79 25 0 25 1 25 80 0
43 -5 90 -11 103 -19 42 -78 59 -122 36 -16 -9 -22 -9 -25 0 -4 12 -35 15 -45
4z"/>
<path d="M17765 1595 c-46 -45 -26 -82 59 -111 34 -12 46 -21 44 -33 -4 -22
-66 -28 -74 -7 -7 19 -54 21 -54 3 0 -8 10 -23 23 -35 31 -30 108 -31 137 -2
41 41 18 86 -56 110 -36 12 -49 22 -49 36 0 24 46 31 65 10 7 -9 23 -16 36
-16 21 0 22 2 13 24 -23 50 -104 62 -144 21z"/>
</g>
</svg>
