<?xml version="1.0" standalone="no"?>
<!DOCTYPE svg PUBLIC "-//W3C//DTD SVG 20010904//EN"
 "http://www.w3.org/TR/2001/REC-SVG-20010904/DTD/svg10.dtd">
<svg version="1.0" xmlns="http://www.w3.org/2000/svg"
 width="1920.000000pt" height="776.000000pt" viewBox="0 0 1920.000000 776.000000"
 preserveAspectRatio="xMidYMid meet">
<metadata>
Created by potrace 1.16, written by Peter Selinger 2001-2019
</metadata>
<g transform="translate(0.000000,776.000000) scale(0.100000,-0.100000)"
fill="#000000" stroke="none">
<path d="M5 3880 c0 -2137 1 -3011 2 -1942 2 1068 2 2816 0 3885 -1 1068 -2
194 -2 -1943z"/>
<path d="M19195 3880 c0 -2137 1 -3011 2 -1942 2 1068 2 2816 0 3885 -1 1068
-2 194 -2 -1943z"/>
<path d="M11199 6251 c-48 -49 -34 -142 26 -169 101 -46 210 39 171 133 -20
47 -52 65 -114 65 -46 0 -58 -4 -83 -29z"/>
<path d="M13562 5778 l3 -433 98 -3 97 -3 0 436 0 435 -100 0 -100 0 2 -432z"/>
<path d="M10647 6170 c-129 -33 -197 -115 -197 -237 0 -127 54 -181 247 -246
123 -43 156 -68 156 -118 0 -45 -32 -69 -94 -69 -54 0 -84 20 -95 65 -6 25 -7
25 -115 25 l-108 0 5 -32 c25 -137 140 -219 309 -221 99 -1 173 22 227 71 70
63 99 152 78 233 -24 89 -72 128 -224 183 -117 43 -153 61 -166 85 -31 59 14
117 83 108 44 -6 73 -28 81 -63 7 -25 7 -25 114 -22 l107 3 -3 30 c-8 80 -87
170 -170 196 -50 15 -188 20 -235 9z"/>
<path d="M11873 6000 c-48 -10 -94 -32 -112 -54 -21 -25 -31 -19 -31 19 l0 35
-100 0 -100 0 0 -330 0 -330 99 0 100 0 3 208 c3 228 8 247 69 272 45 19 116
7 148 -24 l26 -26 5 -213 5 -212 98 -3 97 -3 0 183 c0 101 5 200 10 220 6 20
25 49 42 63 28 24 39 27 85 23 62 -5 98 -33 113 -87 5 -20 10 -118 10 -219 l0
-183 98 3 97 3 0 230 c-1 217 -2 233 -23 280 -30 66 -63 99 -126 126 -105 45
-222 24 -307 -57 l-35 -34 -23 31 c-43 58 -163 96 -248 79z"/>
<path d="M13091 5996 c-24 -8 -61 -29 -82 -46 l-39 -31 0 41 0 40 -100 0 -100
0 0 -485 0 -485 100 0 100 0 0 195 0 195 45 -34 c110 -84 286 -61 369 49 88
115 101 316 28 434 -67 110 -205 164 -321 127z m96 -186 c44 -27 67 -74 67
-140 1 -102 -65 -168 -158 -158 -106 12 -159 134 -106 244 35 70 128 96 197
54z"/>
<path d="M14105 5997 c-67 -18 -103 -38 -147 -84 -64 -66 -83 -122 -83 -243 0
-86 4 -113 21 -151 53 -115 161 -182 294 -183 95 -1 164 22 225 76 37 33 95
119 95 143 0 3 -47 5 -104 5 -103 0 -105 -1 -134 -30 -26 -25 -38 -30 -79 -30
-55 0 -86 17 -108 60 -32 62 -37 60 211 60 l226 0 -4 88 c-6 137 -57 215 -175
269 -64 29 -168 38 -238 20z m145 -163 c25 -10 47 -28 56 -46 28 -54 18 -59
-113 -56 l-118 3 3 24 c3 31 28 60 67 77 40 17 57 17 105 -2z"/>
<path d="M11190 5670 l0 -331 98 3 97 3 3 328 2 327 -100 0 -100 0 0 -330z"/>
<path d="M5245 5259 c-449 -42 -880 -251 -1201 -580 -303 -312 -483 -683 -539
-1112 -8 -65 -15 -147 -15 -183 l0 -64 -880 0 c-830 0 -881 1 -886 18 -30 99
-127 142 -205 89 -42 -28 -59 -60 -59 -113 0 -144 200 -181 256 -47 l14 33
880 0 880 0 0 -52 c0 -227 75 -529 191 -768 101 -210 194 -343 354 -509 172
-178 345 -304 557 -406 550 -264 1187 -256 1738 20 152 77 387 251 506 376
313 329 502 744 543 1189 6 63 11 123 11 133 0 16 50 17 903 17 l903 0 18 -40
c16 -36 70 -80 83 -67 2 3 -5 8 -16 12 -26 8 -61 52 -61 76 0 14 7 19 25 19
14 0 25 -4 25 -10 0 -17 44 -50 68 -50 82 0 107 117 31 144 -41 14 -79 0 -92
-34 -9 -24 -17 -30 -40 -30 -25 0 -28 3 -22 23 25 85 110 121 183 77 32 -20
62 -71 62 -106 0 -31 -34 -87 -64 -105 -17 -10 -25 -19 -18 -19 21 0 80 63 88
93 17 69 -33 150 -101 163 -73 13 -137 -21 -156 -87 l-12 -39 -902 0 -902 0
-12 142 c-21 259 -88 503 -196 720 -365 731 -1126 1153 -1940 1077z m376 -79
c896 -91 1599 -804 1679 -1701 16 -179 30 -159 -113 -159 l-123 0 -12 133
c-20 218 -68 389 -163 582 -79 160 -171 287 -304 420 -231 231 -500 376 -825
446 -90 20 -135 23 -315 23 -180 0 -225 -3 -313 -22 -162 -35 -257 -68 -407
-142 -511 -252 -860 -772 -892 -1332 l-6 -108 -129 0 -128 0 0 68 c0 37 7 115
15 173 61 464 295 891 650 1187 390 326 890 482 1386 432z m92 -290 c257 -44
486 -144 702 -306 90 -67 239 -218 310 -314 162 -216 271 -491 305 -764 17
-129 7 -370 -19 -498 -85 -417 -326 -779 -676 -1013 -187 -126 -371 -202 -597
-247 -145 -29 -422 -32 -563 -6 -586 109 -1059 514 -1244 1066 -62 187 -75
275 -75 512 0 237 11 313 74 503 183 551 665 965 1239 1067 150 26 392 26 544
0z m-4063 -1465 c50 -26 80 -105 40 -105 -11 0 -20 7 -20 15 0 25 -38 55 -70
55 -38 0 -80 -39 -80 -75 0 -33 42 -75 75 -75 16 0 38 12 57 30 49 50 75 37
41 -21 -18 -31 -67 -59 -103 -59 -60 0 -120 61 -120 122 0 98 95 157 180 113z
m2183 -231 c20 -317 150 -646 357 -899 324 -396 813 -615 1325 -592 591 27
1107 363 1375 896 91 183 139 355 162 580 l12 121 117 0 c65 0 120 -4 124 -9
3 -6 1 -63 -5 -128 -56 -606 -385 -1133 -905 -1448 -274 -166 -628 -264 -950
-265 -857 -1 -1609 583 -1820 1414 -29 113 -55 293 -55 376 l0 60 128 0 129 0
6 -106z"/>
<path d="M14976 4665 c-85 -30 -133 -94 -143 -190 -6 -55 -6 -55 -39 -55 l-34
0 0 -79 0 -80 33 -3 32 -3 3 -242 2 -243 100 0 100 0 2 243 3 242 53 3 53 3
-3 77 -3 77 -52 3 c-51 3 -53 4 -53 31 0 34 25 59 68 67 l32 7 0 78 0 79 -57
0 c-32 -1 -76 -7 -97 -15z"/>
<path d="M16020 4200 l0 -430 100 0 100 0 0 430 0 430 -100 0 -100 0 0 -430z"/>
<path d="M10460 4180 l0 -410 100 0 100 0 0 410 0 410 -100 0 -100 0 0 -410z"/>
<path d="M14368 4503 l-3 -78 -37 -3 -38 -3 0 -79 0 -79 38 -3 37 -3 5 -175
c4 -144 8 -182 24 -213 34 -70 97 -97 222 -97 l84 0 0 79 0 79 -55 4 c-31 3
-61 10 -68 17 -8 8 -12 57 -12 159 l0 147 68 3 68 3 -3 77 -3 77 -65 5 -65 5
-3 78 -3 77 -94 0 -94 0 -3 -77z"/>
<path d="M11137 4420 c-47 -12 -89 -34 -106 -54 -21 -25 -31 -19 -31 19 l0 35
-100 0 -100 0 0 -325 0 -325 99 0 100 0 3 204 c3 189 5 207 24 233 50 67 167
63 209 -7 18 -31 20 -55 23 -232 l4 -198 93 0 93 0 4 198 c4 216 10 244 64
272 36 20 106 17 139 -4 48 -31 55 -68 55 -276 l0 -190 101 0 101 0 -4 228
c-3 212 -5 230 -27 279 -27 62 -82 115 -137 134 -22 7 -68 13 -104 13 -76 0
-150 -33 -194 -84 l-26 -31 -30 35 c-57 64 -166 97 -253 76z"/>
<path d="M12361 4415 c-24 -7 -61 -28 -82 -45 l-39 -31 0 41 0 40 -100 0 -100
0 2 -482 3 -483 95 0 95 0 3 198 2 198 40 -34 c133 -113 343 -54 422 118 20
43 23 66 23 160 0 100 -2 115 -28 167 -65 132 -202 195 -336 153z m98 -183
c66 -49 87 -127 56 -207 -45 -119 -201 -127 -257 -15 -46 91 0 220 87 243 33
9 88 -1 114 -21z"/>
<path d="M13013 4420 c-46 -11 -115 -54 -139 -87 -61 -82 -69 -111 -69 -238 0
-112 2 -124 28 -175 53 -102 119 -149 220 -157 79 -7 134 9 192 52 l45 35 0
-40 0 -41 98 3 97 3 0 320 0 320 -97 3 -98 3 0 -41 c0 -22 -3 -40 -6 -40 -3 0
-24 15 -45 34 -58 49 -142 66 -226 46z m166 -170 c79 -22 126 -117 102 -205
-26 -96 -135 -144 -211 -93 -45 30 -70 81 -70 141 0 81 35 138 96 157 39 11
44 11 83 0z"/>
<path d="M13827 4420 c-92 -24 -169 -88 -209 -175 -18 -41 -23 -68 -23 -150 0
-94 2 -105 33 -168 59 -119 162 -174 311 -165 122 7 212 61 260 156 43 85 45
82 -69 82 l-101 0 -33 -35 c-29 -30 -40 -35 -79 -35 -82 0 -127 61 -127 170 0
48 26 116 53 138 44 36 147 18 162 -28 6 -18 15 -20 116 -20 l109 0 -20 51
c-29 77 -67 117 -148 155 -59 29 -171 40 -235 24z"/>
<path d="M15224 4405 c-10 -26 3 -438 15 -476 50 -159 251 -219 391 -118 22
16 42 29 45 29 3 0 5 -16 5 -35 l0 -35 102 0 101 0 -6 98 c-4 53 -7 199 -7
325 l0 227 -95 0 -95 0 0 -190 c0 -208 -9 -254 -57 -286 -34 -21 -112 -21
-146 0 -50 34 -57 66 -57 280 l0 196 -95 0 c-76 0 -97 -3 -101 -15z"/>
<path d="M15587 3073 c-4 -3 -7 -69 -7 -145 l0 -139 -33 25 c-72 55 -169 71
-259 44 -57 -17 -132 -88 -164 -155 -52 -111 -41 -282 24 -378 93 -135 282
-168 393 -68 l39 35 0 -41 0 -41 100 0 100 0 0 435 0 435 -93 0 c-52 0 -97 -3
-100 -7z m-69 -400 c61 -46 80 -148 42 -223 -50 -99 -195 -97 -247 3 -32 62
-16 164 34 209 45 41 124 46 171 11z"/>
<path d="M10460 2620 l0 -410 100 0 100 0 2 247 3 247 163 -247 164 -247 104
0 104 0 -2 408 -3 407 -102 3 -103 3 -2 -248 -3 -247 -163 247 -163 247 -99 0
-100 0 0 -410z"/>
<path d="M12260 2849 c-196 -88 -241 -409 -81 -569 96 -96 249 -107 356 -26
l35 27 0 -35 0 -36 105 0 105 0 0 325 0 326 -102 -3 -103 -3 -5 -34 c-5 -32
-6 -33 -20 -16 -50 61 -202 84 -290 44z m246 -174 c62 -40 85 -149 46 -225
-48 -96 -191 -96 -244 0 -26 47 -21 147 8 187 45 61 130 78 190 38z"/>
<path d="M13210 2849 c-25 -11 -55 -30 -67 -41 l-23 -21 0 36 0 37 -100 0
-100 0 0 -325 0 -325 100 0 100 0 0 200 c0 215 5 241 52 274 34 24 109 21 143
-6 49 -38 55 -70 55 -278 l0 -190 101 0 101 0 -4 238 c-3 225 -4 239 -26 284
-59 120 -209 173 -332 117z"/>
<path d="M13890 2861 c-121 -37 -197 -128 -220 -263 -28 -161 44 -309 179
-372 68 -31 216 -30 286 2 63 29 110 74 141 134 43 84 39 88 -73 88 l-98 0
-31 -37 c-29 -35 -36 -38 -82 -38 -81 0 -122 54 -122 160 0 102 46 165 122
165 32 0 47 -7 75 -35 l36 -36 102 3 103 3 -20 52 c-26 70 -92 136 -163 162
-58 22 -182 28 -235 12z"/>
<path d="M14578 2855 c-64 -21 -149 -100 -179 -167 -33 -74 -34 -230 -2 -300
30 -66 95 -132 156 -159 75 -34 219 -34 294 0 75 33 163 136 163 191 0 6 -38
10 -101 10 -99 0 -102 -1 -128 -29 -57 -61 -157 -45 -194 31 -10 21 -16 42
-12 48 4 6 89 10 232 10 l226 0 -6 73 c-3 39 -11 89 -18 109 -21 63 -79 130
-144 163 -51 26 -71 30 -149 32 -59 2 -108 -3 -138 -12z m208 -179 c19 -19 34
-43 34 -55 0 -20 -5 -21 -120 -21 -110 0 -120 1 -120 19 0 24 37 70 64 81 11
5 41 9 65 9 36 1 48 -4 77 -33z"/>
<path d="M11330 2642 c0 -245 9 -297 62 -358 83 -95 243 -111 340 -33 20 16
39 29 42 29 3 0 6 -16 6 -35 l0 -35 100 0 100 0 0 325 0 325 -100 0 -100 0 0
-195 c0 -226 -7 -256 -64 -280 -73 -31 -141 -11 -170 49 -13 28 -16 69 -16
230 l0 196 -100 0 -100 0 0 -218z"/>
<path d="M14160 1645 c0 -45 -1 -47 -22 -39 -13 4 -43 8 -67 8 -35 0 -48 -5
-67 -27 -66 -77 -25 -197 68 -197 22 0 49 5 60 11 15 8 22 8 28 -1 4 -7 16
-10 26 -8 18 3 19 14 19 148 0 143 0 145 -22 148 -21 3 -23 -1 -23 -43z m-30
-85 c48 -48 26 -122 -38 -128 -66 -7 -97 74 -47 123 29 30 58 32 85 5z"/>
<path d="M10490 1535 l0 -145 29 0 c29 0 30 2 33 52 2 28 8 53 13 55 6 2 23
-22 38 -52 26 -53 28 -55 68 -55 l41 0 -23 38 c-13 20 -27 44 -32 53 -7 11 -1
23 22 46 33 33 37 55 21 98 -13 35 -65 55 -145 55 l-65 0 0 -145z"/>
<path d="M10809 1657 c-39 -26 -69 -79 -69 -122 0 -78 69 -145 149 -145 85 0
144 60 144 146 0 113 -130 184 -224 121z m121 -47 c28 -15 43 -69 29 -108 -18
-54 -76 -69 -120 -33 -19 15 -24 29 -24 66 0 37 5 51 24 66 25 21 62 25 91 9z"/>
<path d="M11080 1535 l0 -145 30 0 30 0 0 145 0 145 -30 0 -30 0 0 -145z"/>
<path d="M11618 1674 c-5 -4 -8 -70 -8 -146 l0 -138 74 0 c59 0 79 4 107 23
89 59 87 196 -3 243 -33 17 -159 31 -170 18z m165 -74 c26 -29 29 -38 24 -79
-7 -61 -41 -91 -103 -91 l-44 0 0 106 0 107 47 -6 c37 -4 54 -12 76 -37z"/>
<path d="M13030 1536 l0 -146 70 0 c81 0 125 17 134 54 7 30 -7 71 -29 83 -14
8 -13 11 5 28 27 25 26 66 -5 95 -20 19 -39 24 -100 28 l-75 5 0 -147z"/>
<path d="M14434 1661 c-53 -32 -74 -68 -74 -125 0 -98 59 -152 157 -144 42 4
60 11 83 33 17 16 30 32 30 37 0 16 -50 8 -70 -12 -24 -24 -86 -27 -117 -5
-49 35 -50 127 -2 171 29 26 92 25 122 -4 22 -21 67 -31 67 -14 0 19 -35 55
-66 68 -46 19 -93 17 -130 -5z"/>
<path d="M16970 1646 c0 -13 -7 -26 -15 -30 -8 -3 -15 -12 -15 -21 0 -8 7 -15
15 -15 12 0 15 -15 15 -79 0 -92 12 -111 66 -111 27 0 34 4 34 20 0 15 -7 20
-25 20 -24 0 -25 2 -25 75 0 73 1 75 25 75 18 0 25 5 25 20 0 15 -7 20 -25 20
-20 0 -25 5 -25 25 0 20 -5 25 -25 25 -20 0 -25 -5 -25 -24z"/>
<path d="M12148 1615 c-3 -3 13 -55 36 -115 40 -106 42 -110 71 -110 30 0 32
3 68 103 47 127 46 121 21 125 -18 3 -26 -9 -54 -88 -18 -50 -34 -89 -37 -87
-2 2 -16 42 -32 88 -21 64 -32 85 -47 87 -11 2 -22 0 -26 -3z"/>
<path d="M12424 1586 c-28 -28 -34 -42 -34 -75 0 -48 21 -96 49 -111 34 -18
106 -12 135 11 14 11 26 27 26 35 0 19 -34 18 -50 -1 -25 -30 -110 -10 -110
25 0 5 37 10 83 12 l82 3 3 33 c3 26 -3 39 -31 67 -29 29 -42 35 -77 35 -34 0
-48 -6 -76 -34z"/>
<path d="M12660 1505 c0 -106 1 -115 19 -115 17 0 19 9 23 81 3 84 17 109 58
109 41 0 55 -25 58 -109 4 -72 6 -81 23 -81 17 0 19 8 19 90 0 76 -3 93 -20
110 -27 27 -68 35 -104 21 -20 -7 -32 -8 -34 -1 -2 5 -12 10 -23 10 -18 0 -19
-8 -19 -115z"/>
<path d="M13464 1586 c-28 -28 -34 -42 -34 -75 0 -48 21 -96 49 -111 25 -13
87 -13 112 0 13 7 19 7 19 0 0 -5 11 -10 25 -10 l25 0 0 115 c0 109 -1 115
-20 115 -11 0 -23 -7 -26 -15 -5 -13 -8 -13 -27 0 -38 26 -85 19 -123 -19z
m120 -27 c31 -24 36 -81 9 -111 -23 -26 -78 -24 -97 4 -23 33 -20 83 6 108 28
25 48 25 82 -1z"/>
<path d="M13727 1613 c-4 -3 -7 -55 -7 -115 l0 -108 25 0 c25 0 25 1 25 78 0
85 14 112 57 112 39 0 53 -31 53 -113 0 -75 1 -77 25 -77 25 0 25 1 25 86 0
81 -1 87 -29 115 -32 31 -86 40 -109 17 -9 -9 -15 -9 -24 0 -13 13 -31 16 -41
5z"/>
<path d="M14724 1601 c-63 -39 -69 -138 -13 -185 33 -28 102 -36 140 -16 27
15 49 63 49 109 0 87 -101 140 -176 92z m106 -41 c25 -25 27 -86 3 -112 -23
-26 -78 -24 -97 4 -23 33 -20 75 9 103 29 30 58 32 85 5z"/>
<path d="M14950 1505 l0 -115 25 0 c25 0 25 1 25 78 0 64 4 82 18 95 25 22 48
21 72 -3 16 -16 20 -33 20 -95 0 -73 1 -75 25 -75 25 0 25 1 25 78 0 85 14
112 58 112 36 0 52 -37 52 -117 0 -72 0 -73 26 -73 l26 0 -4 91 c-3 85 -5 92
-31 115 -34 29 -85 32 -118 5 -24 -19 -25 -19 -48 0 -25 21 -72 25 -101 9 -13
-7 -21 -7 -25 0 -3 5 -15 10 -26 10 -18 0 -19 -8 -19 -115z"/>
<path d="M15377 1613 c-4 -3 -7 -55 -7 -115 l0 -108 25 0 c24 0 25 2 25 75 0
81 18 115 59 115 39 0 51 -26 51 -111 0 -78 0 -79 25 -79 24 0 25 2 25 75 0
62 4 79 20 95 54 54 100 4 100 -111 0 -52 2 -59 20 -59 18 0 20 7 20 80 0 89
-11 123 -47 139 -36 16 -67 13 -97 -10 l-26 -20 -26 20 c-30 23 -65 27 -97 10
-16 -9 -22 -9 -25 0 -4 12 -35 15 -45 4z"/>
<path d="M15800 1530 c0 -83 2 -93 25 -115 22 -23 31 -25 102 -22 l78 2 0 110
c0 106 -1 110 -22 113 -22 3 -23 0 -23 -70 0 -87 -16 -118 -60 -118 -44 0 -60
31 -60 117 0 66 -2 73 -20 73 -19 0 -20 -7 -20 -90z"/>
<path d="M16067 1613 c-4 -3 -7 -55 -7 -115 l0 -108 25 0 c24 0 25 2 25 75 0
62 4 79 20 95 23 23 49 25 75 6 14 -10 19 -30 23 -95 4 -71 7 -81 23 -81 17 0
19 9 19 88 0 75 -3 92 -20 110 -27 29 -66 38 -104 23 -20 -7 -32 -8 -34 -1 -4
11 -35 14 -45 3z"/>
<path d="M16474 1601 c-62 -38 -68 -139 -12 -186 45 -38 110 -35 151 7 32 33
32 33 9 36 -13 2 -32 -4 -41 -12 -10 -9 -32 -16 -49 -16 -58 0 -82 72 -41 124
25 32 50 33 89 5 17 -13 35 -19 45 -15 16 6 16 9 3 29 -32 48 -101 61 -154 28z"/>
<path d="M16704 1586 c-28 -28 -34 -42 -34 -75 0 -48 21 -96 49 -111 25 -13
87 -13 112 0 13 7 19 7 19 0 0 -5 11 -10 25 -10 l25 0 0 115 c0 109 -1 115
-20 115 -11 0 -23 -7 -26 -15 -5 -13 -8 -13 -27 0 -38 26 -85 19 -123 -19z
m126 -26 c25 -25 27 -86 3 -112 -23 -26 -78 -24 -97 4 -25 35 -20 83 10 107
33 26 58 27 84 1z"/>
<path d="M17274 1610 c-57 -23 -82 -107 -49 -170 20 -38 43 -50 99 -50 61 0
105 37 113 96 12 93 -75 160 -163 124z m91 -55 c47 -46 23 -125 -37 -125 -44
0 -68 25 -68 72 0 71 58 101 105 53z"/>
<path d="M17487 1613 c-4 -3 -7 -55 -7 -115 l0 -108 25 0 c24 0 25 2 25 75 0
81 18 115 59 115 39 0 51 -26 51 -111 0 -78 0 -79 25 -79 25 0 25 1 25 80 0
43 -5 90 -11 103 -19 42 -78 59 -122 36 -16 -9 -22 -9 -25 0 -4 12 -35 15 -45
4z"/>
<path d="M17765 1595 c-46 -45 -26 -82 58 -111 34 -11 47 -21 47 -35 0 -15 -7
-19 -35 -19 -22 0 -38 6 -41 15 -7 19 -54 20 -54 2 0 -8 10 -23 23 -35 31 -30
108 -31 137 -2 41 41 18 86 -56 110 -36 12 -49 22 -49 36 0 24 46 31 65 10 7
-9 23 -16 36 -16 21 0 22 2 13 24 -23 50 -104 62 -144 21z"/>
</g>
</svg>
