<?xml version="1.0" standalone="no"?>
<!DOCTYPE svg PUBLIC "-//W3C//DTD SVG 20010904//EN"
 "http://www.w3.org/TR/2001/REC-SVG-20010904/DTD/svg10.dtd">
<svg version="1.0" xmlns="http://www.w3.org/2000/svg"
 width="1920.000000pt" height="776.000000pt" viewBox="0 0 1920.000000 776.000000"
 preserveAspectRatio="xMidYMid meet">
<metadata>
Created by potrace 1.16, written by Peter Selinger 2001-2019
</metadata>
<g transform="translate(0.000000,776.000000) scale(0.100000,-0.100000)"
fill="#000000" stroke="none">
<path d="M5 3880 c0 -2137 1 -3011 2 -1942 2 1068 2 2816 0 3885 -1 1068 -2
194 -2 -1943z"/>
<path d="M19195 3880 c0 -2137 1 -3011 2 -1942 2 1068 2 2816 0 3885 -1 1068
-2 194 -2 -1943z"/>
<path d="M5402 7023 c-21 -37 -141 -243 -264 -458 -124 -214 -316 -547 -427
-738 -110 -192 -201 -353 -201 -358 0 -5 370 -9 935 -9 567 0 935 4 935 9 0 5
-49 94 -109 198 -60 103 -267 463 -461 798 -193 336 -355 614 -360 618 -4 5
-26 -22 -48 -60z m495 -741 c243 -422 445 -776 449 -785 6 -16 -50 -17 -900
-17 -498 0 -906 3 -906 8 0 4 53 99 118 212 65 113 264 457 442 765 327 568
338 585 349 585 3 -1 205 -346 448 -768z"/>
<path d="M11199 6251 c-23 -24 -29 -38 -29 -73 1 -67 44 -108 115 -108 82 0
138 66 115 136 -17 51 -53 74 -117 74 -47 0 -59 -4 -84 -29z"/>
<path d="M13562 5778 l3 -433 98 -3 97 -3 0 436 0 435 -100 0 -100 0 2 -432z"/>
<path d="M10647 6170 c-129 -33 -197 -115 -197 -237 0 -127 58 -184 248 -247
121 -41 155 -66 155 -117 0 -45 -32 -69 -94 -69 -54 0 -84 20 -95 65 -6 25 -7
25 -116 25 l-110 0 7 -32 c25 -123 111 -196 253 -218 51 -8 87 -8 133 0 83 15
128 39 177 95 80 91 79 219 -3 300 -41 41 -60 51 -250 120 -62 23 -95 55 -95
94 0 35 39 71 77 71 39 0 84 -29 95 -61 l10 -29 103 0 c57 0 106 3 108 8 10
16 -22 105 -50 140 -16 20 -55 50 -86 66 -46 24 -70 29 -144 32 -48 2 -105 -1
-126 -6z"/>
<path d="M11867 5999 c-46 -11 -89 -33 -106 -53 -21 -25 -31 -19 -31 19 l0 35
-100 0 -100 0 0 -330 0 -330 99 0 100 0 3 208 c3 228 8 247 69 272 45 19 116
7 148 -24 l26 -26 5 -213 5 -212 98 -3 97 -3 0 183 c0 101 5 200 10 220 6 20
25 49 42 63 28 24 39 27 85 23 62 -5 98 -33 113 -87 5 -20 10 -118 10 -219 l0
-183 98 3 97 3 0 230 c0 220 -1 232 -24 283 -43 97 -133 149 -251 146 -69 -2
-119 -24 -174 -74 l-42 -39 -26 33 c-49 61 -166 96 -251 75z"/>
<path d="M13105 6001 c-42 -11 -75 -29 -107 -59 l-28 -26 0 42 0 42 -100 0
-100 0 0 -485 0 -485 100 0 100 0 0 195 0 195 45 -34 c153 -117 371 -32 430
168 35 115 7 275 -61 354 -65 77 -187 117 -279 93z m82 -191 c84 -51 93 -184
19 -259 -34 -33 -41 -36 -95 -36 -49 0 -64 4 -86 25 -85 78 -67 240 30 280 36
15 99 11 132 -10z"/>
<path d="M14113 6000 c-90 -19 -168 -81 -214 -170 -21 -39 -24 -59 -24 -155 0
-100 2 -115 28 -167 35 -71 102 -131 170 -154 68 -23 178 -24 244 -1 67 24
140 88 169 152 l24 50 -104 3 -104 3 -30 -31 c-51 -50 -144 -39 -182 22 -42
69 -46 68 206 68 l226 0 -4 88 c-6 137 -57 215 -175 269 -59 27 -163 37 -230
23z m157 -179 c31 -22 56 -69 43 -82 -5 -5 -61 -8 -124 -7 l-114 3 3 25 c8 75
123 112 192 61z"/>
<path d="M11190 5670 l0 -331 98 3 97 3 3 328 2 327 -100 0 -100 0 0 -330z"/>
<path d="M5245 5259 c-360 -37 -710 -176 -1000 -398 -97 -74 -271 -248 -349
-351 -168 -218 -287 -464 -350 -720 -30 -121 -56 -312 -56 -406 l0 -64 -878 0
-878 0 -19 43 c-64 138 -255 101 -255 -50 0 -71 64 -135 132 -132 13 1 5 5
-19 11 -61 13 -103 64 -103 125 0 39 5 50 39 84 43 43 88 51 140 25 53 -28 84
-106 41 -106 -11 0 -20 6 -20 13 0 23 -45 57 -74 57 -34 0 -76 -41 -76 -75 0
-33 42 -75 75 -75 16 0 38 12 57 30 30 30 58 39 58 19 0 -23 -35 -69 -64 -83
-17 -9 -24 -16 -15 -16 25 0 70 40 85 77 l14 33 880 0 880 0 0 -52 c0 -77 18
-218 41 -333 55 -265 179 -538 348 -765 69 -93 232 -263 326 -340 547 -448
1311 -562 1969 -294 676 276 1138 903 1205 1634 6 63 11 123 11 133 0 16 50
17 904 17 l904 0 10 -30 c13 -35 58 -80 81 -80 9 0 3 8 -16 20 -33 20 -53 48
-53 74 0 24 47 21 55 -3 3 -10 19 -24 35 -31 58 -24 104 9 102 74 -1 37 -33
66 -73 66 -31 0 -69 -30 -69 -55 0 -10 -10 -15 -30 -15 -16 0 -30 5 -30 10 0
22 30 69 57 89 15 11 22 21 15 21 -21 0 -70 -57 -77 -90 l-7 -30 -902 0 -903
0 -12 140 c-15 180 -42 313 -96 477 -226 679 -811 1181 -1517 1303 -142 24
-388 33 -523 19z m410 -84 c633 -79 1173 -458 1453 -1020 118 -236 176 -458
197 -742 l7 -93 -126 0 -126 0 0 48 c0 65 -25 246 -45 323 -50 200 -142 404
-250 554 -248 346 -585 565 -1008 657 -87 19 -133 22 -312 22 -180 0 -225 -3
-313 -22 -162 -35 -257 -68 -407 -142 -511 -252 -860 -772 -892 -1332 l-6
-108 -129 0 -128 0 0 68 c0 86 23 256 49 363 61 257 197 534 366 744 394 492
1047 758 1670 680z m58 -285 c327 -56 625 -210 861 -446 319 -320 482 -740
463 -1193 -10 -241 -65 -451 -173 -661 -79 -155 -162 -268 -294 -401 -489
-489 -1228 -607 -1850 -294 -278 140 -511 365 -669 645 -146 261 -208 518
-198 830 7 239 50 420 148 629 218 464 661 801 1168 891 150 26 392 26 544 0z
m-1880 -1695 c27 -368 180 -717 428 -979 156 -164 294 -267 482 -356 247 -118
499 -169 772 -157 661 30 1233 455 1454 1081 38 109 77 299 87 424 l7 92 118
0 c65 0 120 -4 123 -9 9 -14 -13 -230 -35 -341 -43 -222 -149 -477 -278 -668
-521 -775 -1522 -1049 -2361 -646 -606 291 -1016 895 -1056 1557 l-7 108 129
-3 129 -3 8 -100z"/>
<path d="M6129 3820 c91 -140 134 -292 133 -470 -1 -376 -242 -695 -612 -812
-66 -20 -94 -23 -240 -23 -159 0 -168 2 -260 32 -127 43 -234 108 -333 201
l-82 77 63 -69 c195 -212 376 -301 633 -313 402 -19 747 231 865 627 16 53 19
95 18 230 0 153 -2 171 -28 245 -33 96 -93 211 -148 283 -22 28 -42 52 -44 52
-2 0 14 -27 35 -60z"/>
<path d="M15040 4683 c-66 -11 -103 -26 -136 -55 -46 -40 -63 -76 -72 -146 -7
-56 -8 -57 -42 -62 l-35 -5 0 -80 0 -80 38 -3 37 -3 0 -240 0 -239 100 0 100
0 0 239 0 240 53 3 52 3 3 83 3 82 -56 0 c-51 0 -55 2 -55 23 0 31 27 67 50
67 46 0 50 8 50 96 l0 84 -32 -1 c-18 -1 -44 -4 -58 -6z"/>
<path d="M16027 4634 c-4 -4 -7 -200 -7 -436 l0 -428 100 0 100 0 -2 433 -3
432 -90 3 c-50 1 -94 0 -98 -4z"/>
<path d="M10460 4180 l0 -410 100 0 100 0 0 410 0 410 -100 0 -100 0 0 -410z"/>
<path d="M14368 4503 l-3 -78 -37 -3 -38 -3 0 -75 c0 -41 0 -77 0 -81 0 -5 15
-9 33 -11 l34 -3 5 -162 c7 -210 25 -259 113 -298 40 -18 76 -22 173 -20 l53
1 -3 83 -3 82 -50 3 c-27 2 -55 8 -62 14 -9 8 -13 50 -13 154 l0 143 63 3 62
3 3 83 3 82 -66 0 -65 0 0 80 0 80 -100 0 -99 0 -3 -77z"/>
<path d="M11120 4418 c-19 -5 -52 -23 -72 -39 -20 -16 -39 -29 -42 -29 -3 0
-6 16 -6 35 l0 35 -100 0 -100 0 2 -326 3 -326 83 1 c45 0 88 0 96 1 12 0 15
35 18 198 4 214 10 242 59 268 16 8 48 14 73 14 36 0 52 -6 77 -28 41 -37 48
-78 49 -284 l0 -168 100 0 100 0 0 201 c0 218 6 245 57 268 31 14 95 14 127
-1 56 -25 61 -45 64 -265 l3 -203 101 0 100 0 -4 233 c-3 211 -5 236 -24 277
-74 158 -290 198 -420 78 l-44 -41 -44 41 c-67 62 -167 85 -256 60z"/>
<path d="M12340 4410 c-25 -12 -57 -33 -72 -47 l-28 -27 0 42 0 42 -100 0
-100 0 0 -485 0 -485 100 0 100 0 0 195 c0 107 4 195 8 195 5 0 17 -10 28 -21
33 -37 93 -59 165 -59 118 0 198 50 251 158 31 63 33 72 33 177 0 98 -3 116
-26 165 -51 107 -130 161 -244 167 -56 3 -79 0 -115 -17z m135 -191 c65 -57
71 -168 14 -234 -73 -83 -193 -64 -233 35 -31 78 -15 154 43 203 27 22 42 27
86 27 46 0 59 -5 90 -31z"/>
<path d="M12986 4414 c-66 -21 -136 -92 -166 -170 -31 -81 -32 -215 -1 -295
46 -121 141 -189 262 -189 73 0 120 16 167 55 33 27 42 20 42 -31 l0 -25 98 3
97 3 3 328 2 327 -100 0 -100 0 0 -35 c0 -19 -3 -35 -6 -35 -3 0 -21 12 -40
26 -70 54 -162 67 -258 38z m231 -184 c43 -26 64 -69 64 -133 1 -66 -11 -97
-50 -130 -73 -61 -168 -41 -211 43 -38 74 -16 184 44 221 41 25 112 25 153 -1z"/>
<path d="M13806 4414 c-90 -29 -136 -69 -187 -164 -21 -40 -24 -58 -24 -155 0
-100 3 -115 28 -167 30 -61 74 -105 140 -140 36 -20 57 -23 152 -23 103 0 113
2 163 30 72 39 121 101 146 183 7 22 7 22 -103 22 -71 0 -111 -4 -111 -10 0
-6 -12 -22 -26 -35 -40 -37 -106 -35 -144 3 -75 75 -60 248 24 289 49 23 99
11 133 -32 l28 -35 97 0 c58 0 99 4 103 11 4 6 -7 39 -24 74 -34 68 -81 114
-148 141 -55 23 -186 28 -247 8z"/>
<path d="M15222 4188 c3 -218 5 -236 26 -283 30 -65 56 -93 117 -121 89 -42
214 -25 281 37 18 16 22 17 27 6 3 -8 4 -23 3 -33 -2 -11 2 -22 8 -26 13 -9
158 -10 180 -2 14 5 16 44 16 330 l0 325 -102 -3 -103 -3 -5 -213 -5 -214 -33
-29 c-67 -60 -177 -28 -202 59 -5 20 -10 119 -10 220 l0 182 -101 0 -101 0 4
-232z"/>
<path d="M15587 3073 c-4 -3 -7 -72 -7 -152 l0 -145 -32 31 c-102 96 -283 79
-377 -34 -52 -63 -74 -135 -74 -238 1 -149 59 -258 166 -308 89 -43 206 -30
276 30 23 19 41 31 42 26 1 -4 0 -23 -1 -40 l-2 -33 101 0 101 0 0 435 0 435
-93 0 c-52 0 -97 -3 -100 -7z m-79 -393 c50 -31 72 -75 72 -145 0 -101 -50
-158 -140 -159 -53 -1 -87 18 -124 68 -30 40 -29 138 2 187 40 66 126 88 190
49z"/>
<path d="M10460 2620 l0 -410 100 0 100 0 0 252 0 252 166 -252 167 -252 98 0
99 0 0 410 0 410 -94 0 c-80 0 -95 -3 -101 -17 -3 -10 -5 -120 -4 -246 1 -125
0 -229 -2 -231 -3 -3 -78 107 -168 245 l-164 249 -99 0 -98 0 0 -410z"/>
<path d="M2984 2832 c-56 -97 -267 -462 -468 -811 -201 -348 -366 -635 -366
-637 0 -2 423 -4 941 -4 545 0 939 4 937 9 -8 22 -934 1621 -938 1620 -3 0
-51 -79 -106 -177z m239 -79 c69 -120 272 -472 451 -783 l326 -565 -455 -3
c-250 -1 -660 -1 -910 0 l-454 3 262 455 c145 250 348 602 452 783 104 180
192 327 196 327 3 0 63 -98 132 -217z"/>
<path d="M7350 2204 c-256 -444 -466 -810 -468 -815 -2 -5 404 -9 938 -9 554
0 940 4 938 9 -8 22 -933 1621 -938 1621 -3 0 -214 -363 -470 -806z m568 609
c49 -87 252 -439 451 -783 l362 -625 -456 -3 c-250 -1 -660 -1 -910 0 l-455 3
452 783 c248 430 455 782 459 782 3 0 47 -71 97 -157z"/>
<path d="M12291 2859 c-125 -37 -203 -157 -204 -318 -1 -142 54 -251 154 -306
96 -53 238 -38 303 34 28 30 36 26 36 -19 l0 -40 95 0 95 0 0 325 0 325 -95 0
-95 0 0 -40 c0 -22 -3 -40 -6 -40 -4 0 -24 15 -45 34 -57 52 -150 70 -238 45z
m234 -199 c87 -84 57 -245 -53 -281 -64 -21 -142 14 -168 77 -21 49 -18 133 6
172 49 80 150 95 215 32z"/>
<path d="M13237 2856 c-46 -13 -82 -36 -102 -66 -8 -12 -11 -6 -15 25 l-5 40
-97 3 -98 3 0 -326 0 -325 100 0 100 0 0 211 0 211 34 34 c42 42 114 50 164
17 45 -28 52 -67 52 -278 l0 -195 101 0 101 0 -4 233 c-3 225 -4 234 -30 288
-29 65 -75 104 -144 125 -57 17 -93 17 -157 0z"/>
<path d="M13871 2851 c-133 -50 -201 -156 -201 -314 0 -149 58 -251 171 -302
160 -71 341 -26 421 105 15 25 30 57 34 73 l6 27 -104 0 c-100 0 -105 -1 -117
-24 -38 -70 -159 -57 -196 20 -17 36 -20 149 -5 189 29 76 130 103 184 49 14
-15 26 -31 26 -35 0 -5 47 -9 105 -9 77 0 105 3 105 13 0 30 -50 115 -88 149
-58 53 -104 69 -202 74 -68 4 -96 1 -139 -15z"/>
<path d="M14607 2860 c-95 -24 -160 -80 -203 -175 -24 -51 -28 -73 -28 -145 1
-168 75 -279 214 -321 164 -50 328 9 396 142 13 27 24 51 24 54 0 3 -46 5
-102 5 -98 0 -103 -1 -131 -27 -24 -24 -37 -28 -83 -28 -51 0 -58 3 -90 37
-20 22 -34 48 -34 63 l0 25 224 0 224 0 5 23 c8 31 -7 134 -27 182 -23 55 -89
120 -150 146 -57 25 -177 34 -239 19z m156 -161 c31 -16 57 -50 57 -76 0 -23
-2 -23 -125 -23 -69 0 -125 3 -125 6 0 20 34 72 58 86 31 20 103 23 135 7z"/>
<path d="M11332 2623 c3 -226 4 -240 27 -286 13 -26 40 -61 60 -78 37 -30 115
-59 161 -59 48 0 130 30 165 61 l35 31 0 -41 0 -41 100 0 100 0 0 325 0 325
-100 0 -100 0 0 -202 c0 -185 -2 -206 -20 -236 -22 -36 -54 -52 -105 -52 -51
0 -83 16 -105 52 -18 30 -20 51 -20 236 l0 202 -101 0 -101 0 4 -237z"/>
<path d="M14160 1644 c0 -44 -1 -46 -22 -38 -43 14 -105 9 -127 -10 -49 -44
-51 -133 -4 -180 28 -29 87 -35 126 -15 16 9 22 9 25 0 2 -6 12 -11 23 -11 18
0 19 9 19 150 0 143 -1 150 -20 150 -17 0 -20 -7 -20 -46z m-31 -81 c51 -43
24 -133 -40 -133 -64 0 -92 78 -44 125 29 29 55 32 84 8z"/>
<path d="M10490 1535 l0 -145 29 0 c29 0 30 2 33 52 2 28 8 53 13 55 6 1 23
-22 39 -52 27 -53 30 -55 68 -55 l40 0 -23 38 c-13 20 -27 44 -32 53 -7 11 -1
23 22 46 33 33 37 55 21 98 -13 35 -65 55 -145 55 l-65 0 0 -145z"/>
<path d="M10821 1662 c-100 -50 -106 -186 -12 -249 66 -45 170 -22 205 44 27
54 29 94 4 142 -39 75 -123 102 -197 63z m109 -52 c28 -15 43 -69 29 -108 -18
-54 -76 -69 -120 -33 -19 15 -24 29 -24 66 0 37 5 51 24 66 25 21 62 25 91 9z"/>
<path d="M11080 1535 l0 -145 30 0 30 0 0 145 0 145 -30 0 -30 0 0 -145z"/>
<path d="M11618 1674 c-5 -4 -8 -70 -8 -146 l0 -138 74 0 c59 0 79 4 107 23
47 31 71 81 65 134 -7 53 -22 79 -63 104 -33 21 -161 38 -175 23z m165 -74
c26 -29 29 -38 24 -79 -7 -61 -41 -91 -103 -91 l-44 0 0 106 0 107 47 -6 c37
-4 54 -12 76 -37z"/>
<path d="M13030 1536 l0 -146 70 0 c77 0 125 17 135 49 8 28 -4 69 -26 85 -19
13 -19 13 1 31 28 25 25 66 -6 96 -21 20 -38 24 -100 27 l-74 4 0 -146z"/>
<path d="M14434 1661 c-53 -32 -74 -68 -74 -125 0 -98 59 -152 157 -144 42 4
60 11 83 33 17 16 30 32 30 37 0 16 -50 8 -70 -12 -22 -22 -79 -27 -112 -9
-50 27 -57 128 -11 171 33 31 93 31 126 0 22 -21 67 -31 67 -14 0 19 -35 55
-66 68 -46 19 -93 17 -130 -5z"/>
<path d="M16970 1646 c0 -13 -7 -26 -15 -30 -8 -3 -15 -12 -15 -21 0 -8 7 -15
15 -15 12 0 15 -15 15 -78 0 -90 14 -112 68 -112 25 0 32 4 32 20 0 15 -7 20
-25 20 -24 0 -25 2 -25 75 0 73 1 75 25 75 18 0 25 5 25 20 0 15 -7 20 -25 20
-20 0 -25 5 -25 25 0 20 -5 25 -25 25 -20 0 -25 -5 -25 -24z"/>
<path d="M12148 1615 c-3 -3 13 -55 36 -115 40 -106 42 -110 71 -110 30 0 32
3 68 103 47 127 46 121 21 125 -18 3 -26 -9 -54 -87 -18 -50 -34 -91 -35 -91
-2 0 -9 17 -16 38 -35 108 -51 142 -68 142 -10 0 -20 -2 -23 -5z"/>
<path d="M12424 1586 c-28 -28 -34 -42 -34 -75 0 -48 21 -96 49 -111 34 -18
106 -12 135 11 14 11 26 27 26 35 0 19 -34 18 -50 -1 -25 -30 -110 -10 -110
25 0 5 37 10 83 12 l82 3 3 33 c3 26 -3 39 -31 67 -29 29 -42 35 -77 35 -34 0
-48 -6 -76 -34z"/>
<path d="M12660 1505 c0 -106 1 -115 19 -115 17 0 19 9 23 81 3 84 17 109 58
109 41 0 55 -25 58 -109 4 -72 6 -81 23 -81 17 0 19 8 19 90 0 76 -3 93 -20
110 -27 27 -68 35 -104 21 -20 -7 -32 -8 -34 -1 -2 5 -12 10 -23 10 -18 0 -19
-8 -19 -115z"/>
<path d="M13464 1586 c-28 -28 -34 -42 -34 -75 0 -48 21 -96 49 -111 25 -13
87 -13 112 0 13 7 19 7 19 0 0 -5 11 -10 25 -10 l25 0 0 115 c0 104 -2 115
-18 115 -10 0 -23 -5 -29 -11 -8 -8 -17 -8 -31 0 -40 21 -82 13 -118 -23z
m109 -17 c29 -16 37 -28 37 -64 0 -46 -25 -75 -65 -75 -61 0 -90 86 -43 130
25 23 40 25 71 9z"/>
<path d="M13727 1613 c-4 -3 -7 -55 -7 -115 l0 -108 25 0 c25 0 25 1 25 78 0
64 4 82 18 95 23 21 41 21 70 1 20 -13 22 -24 22 -95 0 -78 0 -79 26 -79 l26
0 -4 91 c-3 85 -5 92 -31 115 -30 25 -75 31 -107 14 -13 -7 -21 -7 -25 0 -7
11 -28 13 -38 3z"/>
<path d="M14724 1601 c-63 -39 -69 -138 -13 -185 23 -20 42 -26 77 -26 73 1
112 42 112 119 0 87 -101 140 -176 92z m106 -41 c25 -25 27 -86 3 -112 -23
-26 -78 -24 -97 4 -23 33 -20 75 9 103 29 30 58 32 85 5z"/>
<path d="M14950 1505 l0 -115 25 0 c25 0 25 1 25 78 0 85 14 112 58 112 36 0
52 -37 52 -117 0 -71 1 -73 25 -73 25 0 25 1 25 78 0 85 14 112 57 112 39 0
53 -31 53 -113 0 -76 0 -77 26 -77 l26 0 -4 91 c-3 85 -5 92 -31 115 -34 29
-85 32 -118 5 -24 -19 -25 -19 -48 0 -25 21 -72 25 -101 9 -13 -7 -21 -7 -25
0 -3 5 -15 10 -26 10 -18 0 -19 -8 -19 -115z"/>
<path d="M15377 1613 c-4 -3 -7 -55 -7 -115 l0 -108 25 0 c24 0 25 2 25 75 0
62 4 79 20 95 11 11 28 20 38 20 38 0 47 -17 52 -102 5 -77 7 -83 28 -86 21
-3 22 0 22 72 0 63 4 80 20 96 54 54 100 4 100 -111 0 -52 2 -59 20 -59 18 0
20 7 20 80 0 89 -11 123 -47 139 -41 19 -95 8 -115 -22 -4 -6 -12 -4 -23 6
-24 24 -64 32 -99 18 -20 -7 -32 -8 -34 -1 -4 11 -35 14 -45 3z"/>
<path d="M15800 1530 c0 -83 2 -93 24 -115 22 -22 32 -24 100 -23 l76 2 0 113
c0 106 -1 113 -20 113 -18 0 -20 -7 -20 -73 0 -86 -16 -117 -60 -117 -44 0
-60 31 -60 117 0 66 -2 73 -20 73 -19 0 -20 -7 -20 -90z"/>
<path d="M16067 1613 c-4 -3 -7 -55 -7 -115 l0 -108 25 0 c24 0 25 2 25 75 0
62 4 79 20 95 23 23 49 25 75 6 14 -10 19 -30 23 -95 4 -71 7 -81 23 -81 17 0
19 9 19 88 0 75 -3 92 -20 110 -27 29 -66 38 -104 23 -20 -7 -32 -8 -34 -1 -4
11 -35 14 -45 3z"/>
<path d="M16474 1601 c-62 -38 -68 -139 -12 -186 45 -38 110 -35 151 7 32 33
32 33 9 36 -13 2 -32 -4 -41 -12 -10 -9 -32 -16 -49 -16 -58 0 -82 72 -41 124
24 31 59 34 84 6 18 -20 45 -26 58 -14 11 11 -12 43 -43 59 -39 20 -79 19
-116 -4z"/>
<path d="M16704 1586 c-28 -28 -34 -42 -34 -75 0 -48 21 -96 49 -111 25 -13
87 -13 112 0 13 7 19 7 19 0 0 -5 11 -10 25 -10 l25 0 0 115 c0 109 -1 115
-20 115 -11 0 -23 -7 -26 -15 -5 -13 -8 -13 -27 0 -38 26 -85 19 -123 -19z
m126 -26 c25 -25 27 -86 3 -112 -38 -42 -113 -7 -113 54 0 64 68 100 110 58z"/>
<path d="M17274 1610 c-57 -23 -82 -107 -49 -170 20 -38 43 -50 99 -50 61 0
105 37 113 96 12 93 -75 160 -163 124z m91 -55 c47 -46 20 -125 -42 -125 -39
0 -63 27 -63 72 0 71 58 101 105 53z"/>
<path d="M17487 1613 c-4 -3 -7 -55 -7 -115 l0 -108 25 0 c24 0 25 2 25 75 0
81 18 115 59 115 39 0 51 -26 51 -111 0 -78 0 -79 25 -79 25 0 25 1 25 80 0
43 -5 90 -11 103 -19 42 -78 59 -122 36 -16 -9 -22 -9 -25 0 -4 12 -35 15 -45
4z"/>
<path d="M17765 1595 c-46 -45 -26 -82 59 -111 34 -12 46 -21 44 -33 -4 -22
-66 -28 -74 -7 -8 20 -54 21 -54 2 0 -49 120 -76 160 -36 41 41 18 86 -56 110
-36 12 -49 22 -49 36 0 24 46 31 65 10 7 -9 23 -16 36 -16 21 0 22 2 13 24
-23 50 -104 62 -144 21z"/>
</g>
</svg>
