<?xml version="1.0" standalone="no"?>
<!DOCTYPE svg PUBLIC "-//W3C//DTD SVG 20010904//EN"
 "http://www.w3.org/TR/2001/REC-SVG-20010904/DTD/svg10.dtd">
<svg version="1.0" xmlns="http://www.w3.org/2000/svg"
 width="1920.000000pt" height="776.000000pt" viewBox="0 0 1920.000000 776.000000"
 preserveAspectRatio="xMidYMid meet">
<metadata>
Created by potrace 1.16, written by Peter Selinger 2001-2019
</metadata>
<g transform="translate(0.000000,776.000000) scale(0.100000,-0.100000)"
fill="#000000" stroke="none">
<path d="M5 3880 c0 -2137 1 -3011 2 -1942 2 1068 2 2816 0 3885 -1 1068 -2
194 -2 -1943z"/>
<path d="M19195 3880 c0 -2137 1 -3011 2 -1942 2 1068 2 2816 0 3885 -1 1068
-2 194 -2 -1943z"/>
<path d="M11201 6251 c-35 -33 -41 -82 -17 -130 42 -80 191 -63 215 25 21 77
-28 134 -115 134 -43 0 -57 -5 -83 -29z"/>
<path d="M13562 5778 l3 -433 98 -3 97 -3 0 436 0 435 -100 0 -100 0 2 -432z"/>
<path d="M10647 6169 c-80 -19 -144 -66 -178 -131 -27 -54 -26 -150 4 -208 30
-60 80 -92 217 -140 128 -45 163 -71 163 -121 0 -45 -32 -69 -94 -69 -54 0
-84 20 -95 65 -6 25 -7 25 -115 25 l-108 0 5 -32 c10 -53 43 -116 77 -144 72
-61 188 -89 305 -73 143 20 235 115 236 244 1 132 -55 180 -308 267 -90 30
-124 104 -68 148 48 39 132 13 146 -46 6 -23 9 -24 111 -24 l105 0 0 32 c0 45
-36 113 -78 148 -70 58 -216 85 -325 59z"/>
<path d="M11873 5999 c-48 -9 -94 -31 -112 -53 -21 -25 -31 -19 -31 19 l0 35
-100 0 -100 0 0 -330 0 -330 99 0 100 0 3 208 c3 228 8 247 69 272 45 19 116
7 148 -24 l26 -26 5 -213 5 -212 98 -3 97 -3 0 183 c0 101 5 200 10 220 33
118 207 118 240 0 5 -20 10 -119 10 -220 l0 -183 98 3 97 3 0 230 c-1 217 -2
233 -23 280 -30 66 -63 99 -125 126 -104 44 -227 21 -308 -57 l-35 -34 -22 29
c-25 34 -110 77 -167 84 -22 2 -59 1 -82 -4z"/>
<path d="M13091 5996 c-24 -8 -61 -29 -82 -46 l-39 -31 0 41 0 40 -100 0 -100
0 0 -485 0 -485 100 0 100 0 0 195 0 196 46 -35 c87 -67 211 -69 307 -5 82 54
127 142 135 265 9 155 -48 273 -160 330 -60 31 -148 39 -207 20z m96 -186 c96
-58 90 -231 -10 -285 -45 -24 -118 -16 -154 16 -74 68 -70 197 6 262 41 34
109 37 158 7z"/>
<path d="M14101 5995 c-97 -27 -163 -83 -203 -170 -33 -71 -33 -237 -2 -306
53 -115 161 -182 294 -183 96 -1 164 22 226 77 26 23 57 63 70 92 l24 50 -104
3 -104 3 -30 -31 c-26 -25 -38 -30 -79 -30 -55 0 -86 17 -108 60 -32 62 -37
60 210 60 l225 0 0 70 c0 132 -55 227 -163 280 -78 38 -175 48 -256 25z m149
-161 c25 -10 47 -28 56 -46 28 -53 18 -58 -117 -58 l-121 0 7 28 c9 35 32 61
70 78 40 17 57 17 105 -2z"/>
<path d="M11190 5670 l0 -331 98 3 97 3 3 328 2 327 -100 0 -100 0 0 -330z"/>
<path d="M15040 4683 c-61 -10 -119 -36 -147 -66 -42 -44 -53 -68 -61 -135 -7
-56 -8 -57 -42 -62 l-35 -5 0 -80 0 -80 38 -3 37 -3 0 -240 0 -239 100 0 100
0 0 239 0 240 53 3 52 3 3 83 3 82 -56 0 c-51 0 -55 2 -55 24 0 35 30 66 67
69 l33 2 0 88 0 87 -32 -1 c-18 -1 -44 -4 -58 -6z"/>
<path d="M16027 4634 c-4 -4 -7 -200 -7 -436 l0 -428 100 0 100 0 -2 433 -3
432 -90 3 c-50 1 -94 0 -98 -4z"/>
<path d="M10460 4180 l0 -410 100 0 100 0 0 410 0 410 -100 0 -100 0 0 -410z"/>
<path d="M14368 4503 l-3 -78 -37 -3 -38 -3 0 -75 c0 -41 -1 -77 -2 -81 -2 -5
16 -9 40 -11 l42 -3 0 -165 c0 -126 4 -173 15 -201 36 -85 90 -112 223 -113
l93 0 -3 83 -3 82 -50 3 c-27 2 -55 8 -62 14 -9 8 -13 50 -13 154 l0 143 63 3
62 3 3 83 3 82 -66 0 -65 0 0 80 0 80 -100 0 -99 0 -3 -77z"/>
<path d="M11120 4419 c-19 -6 -52 -24 -72 -40 -20 -16 -39 -29 -42 -29 -3 0
-6 16 -6 35 l0 35 -100 0 -100 0 0 -324 c0 -290 2 -325 16 -328 9 -2 54 -2 99
0 l84 3 3 197 c4 214 10 242 59 268 16 8 48 14 73 14 36 0 52 -6 77 -28 41
-37 48 -78 49 -287 l0 -170 100 3 100 3 0 206 0 205 34 34 c29 29 41 34 80 34
55 0 90 -15 113 -49 15 -22 18 -55 21 -228 l3 -203 101 0 100 0 -4 233 c-3
210 -5 236 -24 277 -40 86 -142 150 -239 150 -58 0 -131 -29 -179 -71 l-47
-42 -37 35 c-20 20 -52 43 -70 52 -41 21 -145 29 -192 15z"/>
<path d="M12340 4410 c-25 -12 -57 -33 -72 -47 l-28 -27 0 42 0 42 -100 0
-100 0 0 -485 0 -485 100 0 100 0 0 195 c0 107 4 195 8 195 5 0 17 -10 28 -21
33 -37 93 -59 165 -59 118 0 198 50 251 158 31 62 33 73 33 172 0 125 -18 182
-79 248 -56 61 -106 84 -191 89 -56 3 -79 0 -115 -17z m135 -191 c85 -75 65
-222 -38 -275 -64 -34 -152 3 -181 76 -31 78 -15 154 43 203 27 22 42 27 86
27 46 0 59 -5 90 -31z"/>
<path d="M12981 4413 c-63 -22 -133 -95 -161 -169 -31 -81 -32 -215 -1 -295
46 -121 141 -189 262 -189 73 0 120 16 167 54 l29 26 7 -41 6 -40 98 3 97 3 3
328 2 328 -102 -3 c-94 -3 -103 -5 -100 -22 7 -42 -6 -48 -43 -20 -71 54 -175
68 -264 37z m236 -183 c18 -10 39 -33 48 -50 21 -40 21 -129 1 -168 -48 -93
-171 -107 -233 -26 -53 71 -37 204 31 245 41 25 111 25 153 -1z"/>
<path d="M13809 4415 c-81 -26 -139 -73 -178 -145 -35 -63 -36 -68 -36 -175 0
-100 2 -115 28 -167 34 -69 91 -121 166 -149 46 -17 72 -20 146 -17 76 3 98 8
143 33 72 39 121 101 146 183 7 22 7 22 -103 22 -71 0 -111 -4 -111 -10 0 -6
-12 -22 -26 -35 -20 -18 -38 -25 -68 -25 -80 0 -120 54 -120 165 0 84 20 129
68 152 49 23 99 11 133 -32 l28 -35 97 0 c58 0 99 4 103 11 4 6 -7 39 -24 74
-34 68 -81 114 -148 141 -54 23 -186 28 -244 9z"/>
<path d="M15222 4188 c3 -218 5 -236 26 -283 30 -65 56 -93 117 -121 87 -41
193 -30 268 28 l37 29 1 -28 c1 -15 1 -31 0 -35 -2 -13 42 -19 124 -16 l80 3
3 328 2 328 -102 -3 -103 -3 -5 -213 -5 -214 -33 -29 c-67 -60 -177 -28 -202
59 -5 20 -10 119 -10 220 l0 182 -101 0 -101 0 4 -232z"/>
<path d="M15587 3073 c-4 -3 -7 -69 -7 -145 l0 -139 -33 25 c-72 55 -169 71
-259 44 -57 -17 -132 -88 -164 -155 -52 -111 -41 -282 24 -378 93 -135 282
-168 393 -68 l39 35 0 -41 0 -41 100 0 100 0 0 435 0 435 -93 0 c-52 0 -97 -3
-100 -7z m-69 -400 c61 -46 80 -148 42 -223 -50 -99 -195 -97 -247 3 -32 62
-16 164 34 209 45 41 124 46 171 11z"/>
<path d="M10460 2620 l0 -410 100 0 100 0 2 247 3 247 163 -247 164 -247 104
0 104 0 -2 408 -3 407 -102 3 -103 3 -2 -248 -3 -247 -163 247 -163 247 -99 0
-100 0 0 -410z"/>
<path d="M1687 2885 c-20 -7 -44 -19 -53 -26 -46 -38 -58 -131 -24 -186 56
-92 202 -82 253 17 56 107 -60 236 -176 195z"/>
<path d="M9449 2890 c-95 -17 -145 -116 -103 -206 36 -75 151 -101 214 -48 77
65 80 154 8 222 -31 29 -73 40 -119 32z"/>
<path d="M12260 2849 c-196 -88 -241 -409 -81 -569 98 -98 248 -108 358 -24
l33 25 0 -35 0 -36 105 0 105 0 0 325 0 326 -102 -3 -103 -3 -5 -34 c-5 -32
-6 -33 -20 -16 -50 61 -202 84 -290 44z m246 -174 c62 -40 85 -149 46 -225
-48 -96 -191 -96 -244 0 -26 47 -21 147 8 187 45 61 130 78 190 38z"/>
<path d="M13210 2849 c-25 -11 -55 -30 -67 -41 l-23 -21 0 36 0 37 -100 0
-100 0 0 -325 0 -325 100 0 100 0 0 200 c0 215 5 241 52 274 34 24 109 21 143
-6 49 -38 55 -70 55 -278 l0 -190 101 0 101 0 -4 238 c-3 225 -4 239 -26 284
-59 120 -209 173 -332 117z"/>
<path d="M13890 2861 c-121 -37 -197 -128 -220 -263 -28 -161 44 -309 179
-372 68 -31 216 -30 286 2 63 29 110 74 141 134 43 84 39 88 -73 88 l-98 0
-31 -37 c-29 -35 -36 -38 -82 -38 -81 0 -122 54 -122 160 0 102 46 165 122
165 32 0 47 -7 75 -35 l36 -36 102 3 103 3 -20 52 c-26 70 -92 136 -163 162
-58 22 -182 28 -235 12z"/>
<path d="M14578 2855 c-64 -21 -149 -100 -179 -167 -33 -74 -34 -230 -2 -300
30 -66 95 -132 156 -159 75 -34 219 -34 294 0 75 33 163 136 163 191 0 6 -38
10 -101 10 -99 0 -102 -1 -128 -29 -57 -61 -157 -45 -194 31 -10 21 -16 42
-12 48 4 6 89 10 232 10 l226 0 -6 73 c-3 39 -11 89 -18 109 -21 63 -79 130
-144 163 -51 26 -71 30 -149 32 -59 2 -108 -3 -138 -12z m208 -179 c19 -19 34
-43 34 -55 0 -20 -5 -21 -120 -21 -110 0 -120 1 -120 19 0 24 37 70 64 81 11
5 41 9 65 9 36 1 48 -4 77 -33z"/>
<path d="M11330 2642 c0 -245 9 -297 62 -358 83 -95 243 -111 340 -33 20 16
39 29 42 29 3 0 6 -16 6 -35 l0 -35 100 0 100 0 0 325 0 325 -100 0 -100 0 0
-195 c0 -226 -7 -256 -64 -280 -73 -31 -141 -11 -170 49 -13 28 -16 69 -16
230 l0 196 -100 0 -100 0 0 -218z"/>
<path d="M4077 2753 c837 -2 2209 -2 3050 0 840 1 156 2 -1522 2 -1677 0
-2365 -1 -1528 -2z"/>
<path d="M14160 1645 c0 -45 -1 -47 -22 -39 -13 4 -43 8 -67 8 -35 0 -48 -5
-67 -27 -66 -77 -25 -197 68 -197 22 0 49 5 60 11 15 8 22 8 28 -1 4 -7 16
-10 26 -8 18 3 19 14 19 148 0 143 0 145 -22 148 -21 3 -23 -1 -23 -43z m-30
-85 c48 -48 26 -122 -38 -128 -66 -7 -97 74 -47 123 29 30 58 32 85 5z"/>
<path d="M10490 1535 l0 -145 29 0 c29 0 30 2 33 52 2 28 8 53 13 55 6 2 23
-22 38 -52 26 -53 28 -55 68 -55 l41 0 -23 38 c-13 20 -27 44 -32 53 -7 11 -1
23 22 46 33 33 37 55 21 98 -13 35 -65 55 -145 55 l-65 0 0 -145z"/>
<path d="M10809 1657 c-39 -26 -69 -79 -69 -122 0 -78 69 -145 149 -145 85 0
144 60 144 146 0 113 -130 184 -224 121z m121 -47 c28 -15 43 -69 29 -108 -18
-54 -76 -69 -120 -33 -19 15 -24 29 -24 66 0 37 5 51 24 66 25 21 62 25 91 9z"/>
<path d="M11080 1535 l0 -145 30 0 30 0 0 145 0 145 -30 0 -30 0 0 -145z"/>
<path d="M11618 1674 c-5 -4 -8 -70 -8 -146 l0 -138 74 0 c59 0 79 4 107 23
89 59 87 196 -3 243 -33 17 -159 31 -170 18z m165 -74 c26 -29 29 -38 24 -79
-7 -61 -41 -91 -103 -91 l-44 0 0 106 0 107 47 -6 c37 -4 54 -12 76 -37z"/>
<path d="M13030 1536 l0 -146 70 0 c81 0 125 17 134 54 7 30 -7 71 -29 83 -14
8 -13 11 5 28 27 25 26 66 -5 95 -20 19 -39 24 -100 28 l-75 5 0 -147z"/>
<path d="M14434 1661 c-53 -32 -74 -68 -74 -125 0 -98 59 -152 157 -144 42 4
60 11 83 33 17 16 30 32 30 37 0 16 -50 8 -70 -12 -24 -24 -86 -27 -117 -5
-49 35 -50 127 -2 171 29 26 92 25 122 -4 22 -21 67 -31 67 -14 0 19 -35 55
-66 68 -46 19 -93 17 -130 -5z"/>
<path d="M16970 1646 c0 -13 -7 -26 -15 -30 -8 -3 -15 -12 -15 -21 0 -8 7 -15
15 -15 12 0 15 -15 15 -79 0 -92 12 -111 66 -111 27 0 34 4 34 20 0 15 -7 20
-25 20 -24 0 -25 2 -25 75 0 73 1 75 25 75 18 0 25 5 25 20 0 15 -7 20 -25 20
-20 0 -25 5 -25 25 0 20 -5 25 -25 25 -20 0 -25 -5 -25 -24z"/>
<path d="M12148 1615 c-3 -3 13 -55 36 -115 40 -106 42 -110 71 -110 30 0 32
3 68 103 47 127 46 121 21 125 -18 3 -26 -9 -54 -88 -18 -50 -34 -89 -37 -87
-2 2 -16 42 -32 88 -21 64 -32 85 -47 87 -11 2 -22 0 -26 -3z"/>
<path d="M12424 1586 c-28 -28 -34 -42 -34 -75 0 -48 21 -96 49 -111 34 -18
106 -12 135 11 14 11 26 27 26 35 0 19 -34 18 -50 -1 -25 -30 -110 -10 -110
25 0 5 37 10 83 12 l82 3 3 33 c3 26 -3 39 -31 67 -29 29 -42 35 -77 35 -34 0
-48 -6 -76 -34z"/>
<path d="M12660 1505 c0 -106 1 -115 19 -115 17 0 19 9 23 81 3 84 17 109 58
109 41 0 55 -25 58 -109 4 -72 6 -81 23 -81 17 0 19 8 19 90 0 76 -3 93 -20
110 -27 27 -68 35 -104 21 -20 -7 -32 -8 -34 -1 -2 5 -12 10 -23 10 -18 0 -19
-8 -19 -115z"/>
<path d="M13464 1586 c-28 -28 -34 -42 -34 -75 0 -48 21 -96 49 -111 25 -13
87 -13 112 0 13 7 19 7 19 0 0 -5 11 -10 25 -10 l25 0 0 115 c0 109 -1 115
-20 115 -11 0 -23 -7 -26 -15 -5 -13 -8 -13 -27 0 -38 26 -85 19 -123 -19z
m120 -27 c31 -24 36 -81 9 -111 -23 -26 -78 -24 -97 4 -23 33 -20 83 6 108 28
25 48 25 82 -1z"/>
<path d="M13727 1613 c-4 -3 -7 -55 -7 -115 l0 -108 25 0 c25 0 25 1 25 78 0
85 14 112 57 112 39 0 53 -31 53 -113 0 -75 1 -77 25 -77 25 0 25 1 25 86 0
81 -1 87 -29 115 -32 31 -86 40 -109 17 -9 -9 -15 -9 -24 0 -13 13 -31 16 -41
5z"/>
<path d="M14724 1601 c-63 -39 -69 -138 -13 -185 33 -28 102 -36 140 -16 27
15 49 63 49 109 0 87 -101 140 -176 92z m106 -41 c25 -25 27 -86 3 -112 -23
-26 -78 -24 -97 4 -23 33 -20 75 9 103 29 30 58 32 85 5z"/>
<path d="M14950 1505 l0 -115 25 0 c25 0 25 1 25 78 0 64 4 82 18 95 25 22 48
21 72 -3 16 -16 20 -33 20 -95 0 -73 1 -75 25 -75 25 0 25 1 25 78 0 85 14
112 58 112 36 0 52 -37 52 -117 0 -72 0 -73 26 -73 l26 0 -4 91 c-3 85 -5 92
-31 115 -34 29 -85 32 -118 5 -24 -19 -25 -19 -48 0 -25 21 -72 25 -101 9 -13
-7 -21 -7 -25 0 -3 5 -15 10 -26 10 -18 0 -19 -8 -19 -115z"/>
<path d="M15377 1613 c-4 -3 -7 -55 -7 -115 l0 -108 25 0 c24 0 25 2 25 75 0
81 18 115 59 115 39 0 51 -26 51 -111 0 -78 0 -79 25 -79 24 0 25 2 25 75 0
62 4 79 20 95 54 54 100 4 100 -111 0 -52 2 -59 20 -59 18 0 20 7 20 80 0 89
-11 123 -47 139 -36 16 -67 13 -97 -10 l-26 -20 -26 20 c-30 23 -65 27 -97 10
-16 -9 -22 -9 -25 0 -4 12 -35 15 -45 4z"/>
<path d="M15800 1530 c0 -83 2 -93 25 -115 22 -23 31 -25 102 -22 l78 2 0 110
c0 106 -1 110 -22 113 -22 3 -23 0 -23 -70 0 -87 -16 -118 -60 -118 -44 0 -60
31 -60 117 0 66 -2 73 -20 73 -19 0 -20 -7 -20 -90z"/>
<path d="M16067 1613 c-4 -3 -7 -55 -7 -115 l0 -108 25 0 c24 0 25 2 25 75 0
62 4 79 20 95 23 23 49 25 75 6 14 -10 19 -30 23 -95 4 -71 7 -81 23 -81 17 0
19 9 19 88 0 75 -3 92 -20 110 -27 29 -66 38 -104 23 -20 -7 -32 -8 -34 -1 -4
11 -35 14 -45 3z"/>
<path d="M16474 1601 c-62 -38 -68 -139 -12 -186 45 -38 110 -35 151 7 32 33
32 33 9 36 -13 2 -32 -4 -41 -12 -10 -9 -32 -16 -49 -16 -58 0 -82 72 -41 124
25 32 50 33 89 5 17 -13 35 -19 45 -15 16 6 16 9 3 29 -32 48 -101 61 -154 28z"/>
<path d="M16704 1586 c-28 -28 -34 -42 -34 -75 0 -48 21 -96 49 -111 25 -13
87 -13 112 0 13 7 19 7 19 0 0 -5 11 -10 25 -10 l25 0 0 115 c0 109 -1 115
-20 115 -11 0 -23 -7 -26 -15 -5 -13 -8 -13 -27 0 -38 26 -85 19 -123 -19z
m126 -26 c25 -25 27 -86 3 -112 -23 -26 -78 -24 -97 4 -25 35 -20 83 10 107
33 26 58 27 84 1z"/>
<path d="M17274 1610 c-57 -23 -82 -107 -49 -170 20 -38 43 -50 99 -50 61 0
105 37 113 96 12 93 -75 160 -163 124z m91 -55 c47 -46 23 -125 -37 -125 -44
0 -68 25 -68 72 0 71 58 101 105 53z"/>
<path d="M17487 1613 c-4 -3 -7 -55 -7 -115 l0 -108 25 0 c24 0 25 2 25 75 0
81 18 115 59 115 39 0 51 -26 51 -111 0 -78 0 -79 25 -79 25 0 25 1 25 80 0
43 -5 90 -11 103 -19 42 -78 59 -122 36 -16 -9 -22 -9 -25 0 -4 12 -35 15 -45
4z"/>
<path d="M17765 1595 c-46 -45 -26 -82 58 -111 34 -11 47 -21 47 -35 0 -15 -7
-19 -35 -19 -22 0 -38 6 -41 15 -7 19 -54 20 -54 2 0 -8 10 -23 23 -35 31 -30
108 -31 137 -2 41 41 18 86 -56 110 -36 12 -49 22 -49 36 0 24 46 31 65 10 7
-9 23 -16 36 -16 21 0 22 2 13 24 -23 50 -104 62 -144 21z"/>
</g>
</svg>
