<?xml version="1.0" standalone="no"?>
<!DOCTYPE svg PUBLIC "-//W3C//DTD SVG 20010904//EN"
 "http://www.w3.org/TR/2001/REC-SVG-20010904/DTD/svg10.dtd">
<svg version="1.0" xmlns="http://www.w3.org/2000/svg"
 width="1920.000000pt" height="776.000000pt" viewBox="0 0 1920.000000 776.000000"
 preserveAspectRatio="xMidYMid meet">
<metadata>
Created by potrace 1.16, written by Peter Selinger 2001-2019
</metadata>
<g transform="translate(0.000000,776.000000) scale(0.100000,-0.100000)"
fill="#000000" stroke="none">
<path d="M5 3880 c0 -2137 1 -3011 2 -1942 2 1068 2 2816 0 3885 -1 1068 -2
194 -2 -1943z"/>
<path d="M19195 3880 c0 -2137 1 -3011 2 -1942 2 1068 2 2816 0 3885 -1 1068
-2 194 -2 -1943z"/>
<path d="M5402 7023 c-287 -493 -892 -1547 -892 -1554 0 -5 395 -9 935 -9 559
0 935 4 935 9 0 10 -916 1600 -930 1614 -4 5 -26 -22 -48 -60z m495 -741 c243
-422 445 -775 448 -785 7 -16 -42 -17 -900 -17 -841 0 -907 1 -901 17 17 44
892 1552 901 1552 6 0 209 -345 452 -767z"/>
<path d="M11250 6279 c-95 -20 -111 -153 -23 -198 59 -30 145 -2 169 56 36 86
-43 164 -146 142z"/>
<path d="M13562 5778 l3 -433 98 -3 97 -3 0 436 0 435 -100 0 -100 0 2 -432z"/>
<path d="M10621 6162 c-63 -23 -94 -45 -135 -96 -28 -34 -31 -45 -34 -119 -2
-71 1 -88 20 -122 33 -56 100 -97 226 -139 123 -41 156 -66 154 -118 -1 -46
-32 -68 -93 -68 -54 0 -84 20 -95 65 -6 25 -7 25 -116 25 l-110 0 7 -32 c11
-54 45 -116 78 -144 126 -107 363 -105 471 2 92 93 97 233 11 320 -41 40 -61
50 -250 119 -62 23 -95 55 -95 94 0 35 39 71 77 71 39 0 84 -29 95 -61 l10
-29 103 0 c57 0 106 3 108 8 10 16 -22 105 -50 140 -16 20 -55 50 -86 66 -76
39 -213 47 -296 18z"/>
<path d="M11867 5999 c-46 -11 -89 -33 -106 -53 -21 -25 -31 -19 -31 19 l0 35
-100 0 -100 0 0 -330 0 -330 99 0 100 0 3 208 c3 228 8 247 69 272 45 19 116
7 148 -24 l26 -26 5 -213 5 -212 98 -3 97 -3 0 183 c0 101 5 200 10 220 6 20
25 49 42 63 28 24 39 27 85 23 62 -5 98 -33 113 -87 5 -20 10 -118 10 -219 l0
-183 98 3 97 3 0 230 c0 220 -1 232 -24 283 -43 97 -133 149 -251 146 -69 -2
-119 -24 -174 -74 l-43 -39 -22 29 c-45 61 -169 100 -254 79z"/>
<path d="M13105 6001 c-41 -10 -75 -29 -107 -59 l-28 -26 0 42 0 42 -100 0
-100 0 0 -485 0 -485 100 0 100 0 0 195 0 195 45 -34 c88 -67 208 -70 309 -6
117 75 167 258 115 425 -45 146 -190 230 -334 196z m82 -191 c45 -27 67 -74
67 -142 -1 -43 -7 -66 -25 -93 -83 -121 -259 -59 -259 92 0 70 35 133 85 153
36 15 99 11 132 -10z"/>
<path d="M14113 6000 c-91 -19 -165 -77 -211 -165 -25 -45 -27 -60 -27 -160 0
-100 2 -115 28 -167 55 -112 158 -172 292 -172 93 0 162 24 224 80 39 35 91
114 91 139 0 3 -47 5 -104 5 -103 0 -105 -1 -134 -30 -26 -25 -38 -30 -79 -30
-55 0 -86 17 -108 60 -32 62 -37 60 209 60 l225 0 3 33 c9 99 -33 221 -97 274
-75 64 -208 95 -312 73z m157 -178 c31 -23 56 -70 43 -83 -5 -5 -61 -8 -124
-7 l-114 3 3 24 c8 76 123 113 192 63z"/>
<path d="M11190 5670 l0 -331 98 3 97 3 3 328 2 327 -100 0 -100 0 0 -330z"/>
<path d="M5245 5260 c-374 -39 -742 -190 -1035 -427 -96 -78 -260 -247 -331
-343 -154 -206 -274 -458 -333 -700 -29 -123 -56 -313 -56 -406 l0 -64 -878 0
-878 0 -19 43 c-65 138 -255 100 -255 -51 0 -143 201 -178 256 -45 l14 33 880
0 880 0 0 -52 c0 -77 18 -218 41 -333 55 -263 182 -543 348 -765 69 -93 233
-263 326 -340 651 -533 1596 -584 2295 -123 119 79 258 193 341 279 308 323
498 739 538 1184 6 63 11 123 11 133 0 16 50 17 904 17 l904 0 10 -30 c13 -35
58 -80 81 -80 9 0 3 8 -16 20 -33 20 -53 48 -53 74 0 27 40 18 67 -14 30 -36
73 -40 103 -10 48 48 16 130 -51 130 -31 0 -69 -30 -69 -55 0 -10 -10 -15 -30
-15 -36 0 -38 15 -7 61 41 61 105 76 165 39 32 -20 62 -71 62 -106 0 -31 -34
-87 -64 -105 -17 -10 -26 -19 -20 -19 19 0 63 40 79 70 61 117 -86 241 -196
167 -22 -15 -39 -38 -49 -65 l-14 -42 -902 0 -901 0 -12 141 c-29 349 -139
667 -329 950 -300 446 -784 752 -1318 834 -124 19 -371 27 -489 15z m376 -80
c639 -65 1204 -455 1488 -1027 117 -236 175 -453 196 -740 l7 -93 -124 0 -124
0 -12 133 c-20 218 -68 389 -163 582 -189 384 -533 682 -938 815 -189 61 -275
74 -506 74 -180 0 -225 -3 -315 -23 -153 -33 -268 -73 -415 -146 -502 -249
-850 -772 -882 -1327 l-6 -108 -129 0 -128 0 0 68 c0 37 7 115 15 173 61 464
296 892 650 1187 391 327 889 482 1386 432z m92 -290 c332 -56 608 -201 853
-445 239 -238 375 -488 446 -818 30 -140 32 -443 4 -592 -138 -744 -760 -1282
-1516 -1312 -697 -28 -1341 416 -1566 1080 -65 190 -78 277 -78 517 0 237 11
314 74 503 185 552 664 966 1236 1066 153 27 393 28 547 1z m-4064 -1464 c53
-28 84 -106 41 -106 -11 0 -20 7 -20 15 0 25 -38 55 -70 55 -38 0 -80 -39 -80
-75 0 -33 42 -75 75 -75 16 0 38 12 57 30 49 50 75 37 41 -21 -41 -69 -134
-76 -190 -14 -93 100 24 253 146 191z m2184 -229 c23 -364 181 -722 439 -992
329 -345 770 -523 1243 -502 591 27 1108 364 1374 896 93 184 141 357 163 579
l12 122 117 0 c65 0 120 -4 124 -9 9 -15 -13 -224 -36 -341 -120 -617 -575
-1155 -1163 -1375 -283 -105 -588 -146 -861 -115 -869 100 -1546 759 -1660
1619 -8 58 -15 132 -15 164 l0 57 128 0 129 0 6 -103z"/>
<path d="M6120 3837 c109 -164 162 -382 140 -568 -36 -296 -204 -538 -465
-669 -147 -74 -199 -85 -390 -85 -153 1 -164 2 -255 33 -126 42 -229 104 -331
199 l-84 78 68 -74 c132 -145 289 -245 447 -286 89 -23 263 -31 358 -15 309
50 570 274 672 578 29 84 34 114 38 227 3 97 0 150 -12 210 -27 130 -104 291
-183 380 l-35 40 32 -48z"/>
<path d="M15040 4683 c-61 -10 -119 -36 -147 -66 -42 -44 -53 -68 -61 -135 -7
-56 -8 -57 -42 -62 l-35 -5 0 -80 0 -80 38 -3 37 -3 0 -240 0 -239 100 0 100
0 0 239 0 240 53 3 52 3 3 83 3 82 -56 0 c-51 0 -55 2 -55 23 0 35 26 64 65
71 l35 7 0 84 0 85 -32 -1 c-18 -1 -44 -4 -58 -6z"/>
<path d="M16027 4634 c-4 -4 -7 -200 -7 -436 l0 -428 100 0 100 0 -2 433 -3
432 -90 3 c-50 1 -94 0 -98 -4z"/>
<path d="M10460 4180 l0 -410 100 0 100 0 0 410 0 410 -100 0 -100 0 0 -410z"/>
<path d="M14368 4503 l-3 -78 -37 -3 -38 -3 0 -85 0 -84 40 0 40 0 0 -165 c0
-126 4 -174 15 -202 36 -85 90 -112 223 -113 l93 0 -3 83 -3 82 -50 3 c-27 2
-55 8 -62 14 -9 8 -13 50 -13 154 l0 143 63 3 62 3 3 83 3 82 -66 0 -65 0 0
80 0 80 -100 0 -99 0 -3 -77z"/>
<path d="M11120 4418 c-19 -5 -52 -23 -72 -39 -20 -16 -39 -29 -42 -29 -3 0
-6 16 -6 35 l0 35 -100 0 -100 0 0 -325 0 -325 99 0 99 0 4 198 c3 144 7 205
18 225 31 62 136 78 190 30 42 -38 49 -78 50 -280 l0 -173 100 0 100 0 0 206
0 206 34 34 c29 29 41 34 80 34 55 0 90 -15 113 -49 15 -22 18 -55 21 -228 l3
-203 101 0 100 0 -4 233 c-3 210 -5 236 -24 277 -40 86 -142 150 -239 150 -58
0 -131 -29 -179 -71 l-46 -41 -44 40 c-67 62 -167 85 -256 60z"/>
<path d="M12340 4410 c-25 -12 -57 -33 -72 -47 l-28 -27 0 42 0 42 -100 0
-100 0 0 -485 0 -485 100 0 100 0 0 195 c0 107 4 195 8 195 5 0 17 -10 28 -21
33 -37 93 -59 167 -59 117 0 196 50 249 158 31 63 33 72 33 177 0 94 -3 117
-23 160 -28 60 -83 119 -137 147 -60 31 -167 35 -225 8z m135 -191 c85 -75 65
-222 -38 -275 -64 -34 -152 3 -181 76 -31 78 -15 154 43 203 27 22 42 27 86
27 46 0 59 -5 90 -31z"/>
<path d="M12981 4413 c-63 -22 -133 -95 -161 -169 -31 -81 -32 -215 -1 -295
28 -74 83 -136 145 -165 94 -44 235 -26 292 37 26 28 34 23 34 -21 l0 -41 98
3 97 3 3 328 2 328 -102 -3 -103 -3 3 -32 c4 -40 0 -40 -44 -7 -70 54 -174 68
-263 37z m236 -183 c43 -26 65 -71 65 -135 2 -161 -183 -225 -259 -90 -42 74
-21 188 41 226 41 25 112 25 153 -1z"/>
<path d="M13809 4415 c-81 -26 -139 -73 -178 -145 -35 -63 -36 -68 -36 -175 0
-100 2 -115 28 -167 34 -69 91 -121 166 -149 46 -17 72 -20 146 -17 76 3 98 8
143 33 72 39 121 101 146 183 7 22 7 22 -103 22 -71 0 -111 -4 -111 -10 0 -6
-12 -22 -26 -35 -40 -37 -106 -35 -144 3 -75 75 -60 248 24 289 49 23 99 11
133 -32 l28 -35 97 0 c58 0 99 4 103 11 4 6 -7 39 -24 74 -34 68 -81 114 -148
141 -54 23 -186 28 -244 9z"/>
<path d="M15222 4188 c3 -218 5 -236 26 -283 30 -65 56 -93 117 -121 90 -43
215 -25 283 38 l22 21 0 -36 c0 -45 12 -49 125 -45 l80 3 3 328 2 328 -102 -3
-103 -3 -5 -213 -5 -214 -33 -29 c-42 -37 -114 -41 -157 -7 -49 38 -55 70 -55
278 l0 190 -101 0 -101 0 4 -232z"/>
<path d="M15587 3073 c-4 -3 -7 -72 -7 -152 l0 -145 -32 31 c-87 80 -231 85
-330 10 -153 -117 -168 -398 -28 -538 100 -100 265 -105 363 -12 l27 27 0 -42
0 -42 100 0 100 0 0 435 0 435 -93 0 c-52 0 -97 -3 -100 -7z m-79 -393 c50
-31 72 -75 72 -146 0 -47 -5 -69 -23 -95 -60 -90 -172 -88 -241 5 -30 40 -29
138 2 187 40 66 126 88 190 49z"/>
<path d="M10460 2620 l0 -410 100 0 100 0 0 252 0 253 166 -253 166 -252 99 0
99 0 0 410 0 411 -97 -3 -98 -3 -2 -244 c-2 -134 -4 -245 -6 -247 -1 -1 -76
109 -166 247 l-164 249 -98 0 -99 0 0 -410z"/>
<path d="M2620 2203 c-256 -443 -466 -810 -468 -814 -2 -5 420 -9 938 -9 549
0 940 4 938 9 -8 22 -934 1621 -938 1620 -3 0 -214 -362 -470 -806z m930 -18
l450 -780 -455 -3 c-250 -1 -660 -1 -910 0 l-454 3 451 783 c249 430 456 781
460 780 4 -2 210 -354 458 -783z"/>
<path d="M7350 2204 c-256 -444 -466 -810 -468 -815 -2 -5 396 -9 938 -9 552
0 940 4 938 9 -8 22 -934 1620 -938 1621 -3 0 -214 -363 -470 -806z m930 -19
l450 -780 -455 -3 c-250 -1 -660 -1 -910 0 l-455 3 452 783 c248 430 455 781
460 780 4 -2 210 -354 458 -783z"/>
<path d="M12274 2854 c-129 -46 -208 -207 -184 -376 17 -116 66 -196 148 -241
97 -53 215 -45 290 19 22 19 43 34 46 34 3 0 6 -18 6 -40 l0 -40 95 0 95 0 0
325 0 325 -95 0 -95 0 0 -40 c0 -22 -3 -40 -6 -40 -4 0 -24 15 -45 34 -61 56
-165 72 -255 40z m214 -168 c70 -36 102 -114 82 -197 -34 -140 -219 -158 -269
-26 -18 47 -13 128 9 165 39 64 118 89 178 58z"/>
<path d="M13234 2856 c-23 -7 -58 -25 -77 -40 l-36 -27 -3 33 -3 33 -97 3 -98
3 0 -326 0 -325 100 0 100 0 0 211 0 211 34 34 c42 42 114 50 164 17 45 -28
52 -67 52 -278 l0 -195 101 0 101 0 -3 233 c-4 231 -4 232 -32 290 -33 65 -76
103 -143 123 -57 17 -105 17 -160 0z"/>
<path d="M13873 2851 c-137 -51 -203 -154 -203 -316 0 -90 21 -160 64 -217
106 -138 343 -157 478 -39 35 30 88 120 88 148 0 10 -24 13 -99 13 l-99 0 -35
-35 c-27 -27 -43 -35 -72 -35 -82 0 -126 58 -126 163 0 74 11 109 47 142 39
36 111 35 148 -1 14 -15 26 -31 26 -35 0 -5 47 -9 105 -9 77 0 105 3 105 13 0
30 -50 115 -88 149 -58 53 -104 69 -202 74 -67 4 -96 1 -137 -15z"/>
<path d="M14595 2857 c-97 -32 -149 -79 -191 -172 -23 -50 -28 -74 -28 -140 0
-97 14 -148 57 -212 62 -93 180 -143 308 -129 113 11 197 66 244 159 l26 52
-102 3 c-100 3 -103 2 -131 -25 -25 -24 -38 -28 -83 -28 -47 0 -59 4 -85 30
-16 17 -32 45 -36 63 l-6 32 225 0 c257 0 244 -5 232 87 -18 130 -78 220 -178
264 -64 27 -192 36 -252 16z m168 -158 c31 -16 57 -50 57 -76 0 -23 -2 -23
-125 -23 -69 0 -125 3 -125 6 0 20 34 72 58 86 31 20 103 23 135 7z"/>
<path d="M11332 2623 c3 -226 4 -240 27 -286 13 -26 40 -61 60 -78 37 -30 115
-59 161 -59 48 0 130 30 165 61 l35 31 0 -41 0 -41 100 0 100 0 0 325 0 325
-100 0 -100 0 0 -202 c0 -185 -2 -206 -20 -236 -22 -36 -54 -52 -105 -52 -51
0 -83 16 -105 52 -18 30 -20 51 -20 236 l0 202 -101 0 -101 0 4 -237z"/>
<path d="M14160 1644 c0 -44 -1 -46 -22 -38 -13 4 -43 8 -67 8 -35 0 -48 -5
-67 -27 -66 -77 -25 -197 68 -197 22 0 49 5 61 11 16 9 22 9 25 0 2 -6 12 -11
23 -11 18 0 19 9 19 150 0 143 -1 150 -20 150 -17 0 -20 -7 -20 -46z m-29 -83
c48 -39 19 -131 -43 -131 -63 0 -91 78 -43 125 29 30 55 32 86 6z"/>
<path d="M10490 1535 l0 -145 29 0 c29 0 30 2 33 52 2 28 8 53 13 55 6 2 23
-22 38 -52 26 -53 28 -55 68 -55 l41 0 -23 38 c-13 20 -27 44 -32 53 -7 11 -1
23 22 46 33 33 37 55 21 98 -13 35 -65 55 -145 55 l-65 0 0 -145z"/>
<path d="M10809 1657 c-39 -26 -69 -79 -69 -122 0 -78 69 -145 149 -145 85 0
144 60 144 146 0 113 -130 184 -224 121z m121 -47 c28 -15 43 -69 29 -108 -18
-54 -76 -69 -120 -33 -19 15 -24 29 -24 66 0 37 5 51 24 66 25 21 62 25 91 9z"/>
<path d="M11080 1535 l0 -145 30 0 30 0 0 145 0 145 -30 0 -30 0 0 -145z"/>
<path d="M11618 1674 c-5 -4 -8 -70 -8 -146 l0 -138 74 0 c59 0 79 4 107 23
89 59 87 196 -3 243 -33 17 -159 31 -170 18z m137 -50 c40 -19 60 -61 52 -112
-9 -52 -46 -82 -103 -82 l-44 0 0 105 0 105 31 0 c17 0 46 -7 64 -16z"/>
<path d="M13030 1536 l0 -146 70 0 c82 0 125 18 134 55 7 28 -17 85 -36 85 -6
0 -2 10 10 23 29 31 28 68 -3 97 -20 19 -39 24 -100 28 l-75 5 0 -147z"/>
<path d="M14434 1661 c-53 -32 -74 -68 -74 -125 0 -98 59 -152 157 -144 42 4
60 11 83 33 17 16 30 32 30 37 0 16 -50 8 -70 -12 -24 -24 -86 -27 -117 -5
-49 35 -50 127 -2 171 29 26 92 25 122 -4 22 -21 67 -31 67 -14 0 19 -35 55
-66 68 -46 19 -93 17 -130 -5z"/>
<path d="M16970 1646 c0 -13 -7 -26 -15 -30 -8 -3 -15 -12 -15 -21 0 -8 7 -15
15 -15 12 0 15 -15 15 -78 0 -90 14 -112 68 -112 25 0 32 4 32 20 0 15 -7 20
-25 20 -24 0 -25 2 -25 75 0 73 1 75 25 75 18 0 25 5 25 20 0 15 -7 20 -25 20
-20 0 -25 5 -25 25 0 20 -5 25 -25 25 -20 0 -25 -5 -25 -24z"/>
<path d="M12150 1608 c0 -7 16 -59 37 -115 37 -100 39 -103 68 -103 30 0 32 3
68 103 47 127 46 121 21 125 -18 3 -26 -9 -54 -88 -18 -50 -34 -89 -37 -87 -2
2 -16 42 -32 88 -22 68 -32 85 -49 87 -13 2 -22 -2 -22 -10z"/>
<path d="M12424 1586 c-28 -28 -34 -42 -34 -75 0 -48 21 -96 49 -111 34 -18
106 -12 135 11 14 11 26 27 26 35 0 19 -34 18 -50 -1 -25 -30 -110 -10 -110
25 0 5 37 10 83 12 l82 3 3 33 c3 26 -3 39 -31 67 -29 29 -42 35 -77 35 -34 0
-48 -6 -76 -34z"/>
<path d="M12660 1505 c0 -106 1 -115 19 -115 17 0 19 9 23 81 3 84 17 109 58
109 41 0 55 -25 58 -109 4 -72 6 -81 23 -81 17 0 19 8 19 90 0 76 -3 93 -20
110 -27 27 -68 35 -104 21 -20 -7 -32 -8 -34 -1 -2 5 -12 10 -23 10 -18 0 -19
-8 -19 -115z"/>
<path d="M13464 1586 c-28 -28 -34 -42 -34 -75 0 -48 21 -96 49 -111 25 -13
87 -13 112 0 13 7 19 7 19 0 0 -5 11 -10 25 -10 l25 0 0 115 c0 109 -1 115
-20 115 -11 0 -23 -7 -26 -15 -5 -13 -8 -13 -27 0 -38 26 -85 19 -123 -19z
m123 -28 c28 -26 31 -82 6 -110 -23 -26 -78 -24 -97 4 -23 33 -20 83 6 108 28
26 56 25 85 -2z"/>
<path d="M13727 1613 c-4 -3 -7 -55 -7 -115 l0 -108 25 0 c25 0 25 1 25 78 0
85 14 112 57 112 39 0 53 -31 53 -113 0 -75 1 -77 25 -77 25 0 25 1 25 86 0
81 -1 87 -29 115 -31 30 -61 36 -105 19 -16 -6 -27 -6 -31 0 -7 11 -29 13 -38
3z"/>
<path d="M14724 1601 c-63 -39 -69 -138 -13 -185 23 -20 42 -26 77 -26 73 1
112 42 112 119 0 87 -101 140 -176 92z m106 -41 c25 -25 27 -86 3 -112 -23
-26 -78 -24 -97 4 -23 33 -20 75 9 103 29 30 58 32 85 5z"/>
<path d="M14950 1505 l0 -115 25 0 c25 0 25 1 25 78 0 64 4 82 18 95 25 22 48
21 72 -3 16 -16 20 -33 20 -95 0 -73 1 -75 25 -75 25 0 25 1 25 78 0 64 4 82
18 95 25 22 48 21 72 -3 16 -16 20 -33 20 -95 0 -73 1 -75 25 -75 24 0 25 2
25 75 0 110 -28 155 -98 155 -16 0 -40 -9 -53 -19 -24 -19 -25 -19 -48 0 -26
21 -72 25 -104 8 -16 -9 -22 -9 -25 0 -2 6 -12 11 -23 11 -18 0 -19 -8 -19
-115z"/>
<path d="M15377 1613 c-4 -3 -7 -55 -7 -115 l0 -108 25 0 c24 0 25 2 25 75 0
81 18 115 59 115 39 0 51 -26 51 -111 0 -78 0 -79 25 -79 24 0 25 2 25 75 0
62 4 79 20 95 54 54 100 4 100 -111 0 -52 2 -59 20 -59 19 0 20 7 20 88 -1 90
-7 109 -47 130 -32 18 -67 14 -97 -9 l-26 -20 -26 20 c-30 23 -65 27 -97 10
-16 -9 -22 -9 -25 0 -4 12 -35 15 -45 4z"/>
<path d="M15800 1530 c0 -83 2 -93 24 -115 22 -21 32 -24 103 -23 l78 1 -3
114 c-3 104 -5 113 -23 113 -17 0 -19 -7 -19 -73 0 -86 -16 -117 -60 -117 -44
0 -60 31 -60 117 0 66 -2 73 -20 73 -19 0 -20 -7 -20 -90z"/>
<path d="M16067 1613 c-4 -3 -7 -55 -7 -115 l0 -108 25 0 c24 0 25 2 25 75 0
62 4 79 20 95 23 23 49 25 75 6 14 -10 19 -30 23 -95 4 -71 7 -81 23 -81 17 0
19 9 19 88 0 75 -3 92 -20 110 -27 29 -66 38 -104 23 -20 -7 -32 -8 -34 -1 -4
11 -35 14 -45 3z"/>
<path d="M16474 1601 c-62 -38 -68 -139 -12 -186 45 -38 110 -35 151 7 32 33
32 33 9 36 -13 2 -32 -4 -41 -12 -26 -24 -77 -20 -95 6 -43 61 18 159 73 119
61 -44 101 -35 59 14 -32 37 -100 44 -144 16z"/>
<path d="M16704 1586 c-28 -28 -34 -42 -34 -75 0 -48 21 -96 49 -111 25 -13
87 -13 112 0 13 7 19 7 19 0 0 -5 11 -10 25 -10 l25 0 0 115 c0 109 -1 115
-20 115 -11 0 -23 -7 -26 -15 -5 -13 -8 -13 -27 0 -38 26 -85 19 -123 -19z
m126 -26 c25 -25 27 -86 3 -112 -23 -26 -78 -24 -97 4 -25 35 -20 83 10 107
33 26 58 27 84 1z"/>
<path d="M17274 1610 c-57 -23 -82 -107 -49 -170 20 -38 43 -50 99 -50 61 0
105 37 113 96 12 93 -75 160 -163 124z m91 -55 c47 -46 23 -125 -37 -125 -44
0 -68 25 -68 72 0 71 58 101 105 53z"/>
<path d="M17487 1613 c-4 -3 -7 -55 -7 -115 l0 -108 25 0 c24 0 25 2 25 75 0
81 18 115 59 115 39 0 51 -26 51 -111 0 -78 0 -79 25 -79 25 0 25 1 25 80 0
43 -5 90 -11 103 -19 42 -78 59 -122 36 -16 -9 -22 -9 -25 0 -4 12 -35 15 -45
4z"/>
<path d="M17765 1595 c-46 -45 -26 -82 59 -111 34 -12 46 -21 44 -33 -4 -22
-66 -28 -74 -7 -7 19 -54 21 -54 3 0 -8 10 -23 23 -35 31 -30 108 -31 137 -2
41 41 18 86 -56 110 -36 12 -49 22 -49 36 0 24 46 31 65 10 7 -9 23 -16 36
-16 21 0 22 2 13 24 -23 50 -104 62 -144 21z"/>
</g>
</svg>
