<?xml version="1.0" standalone="no"?>
<!DOCTYPE svg PUBLIC "-//W3C//DTD SVG 20010904//EN"
 "http://www.w3.org/TR/2001/REC-SVG-20010904/DTD/svg10.dtd">
<svg version="1.0" xmlns="http://www.w3.org/2000/svg"
 width="1920.000000pt" height="776.000000pt" viewBox="0 0 1920.000000 776.000000"
 preserveAspectRatio="xMidYMid meet">
<metadata>
Created by potrace 1.16, written by Peter Selinger 2001-2019
</metadata>
<g transform="translate(0.000000,776.000000) scale(0.100000,-0.100000)"
fill="#000000" stroke="none">
<path d="M5 3880 c0 -2137 1 -3011 2 -1942 2 1068 2 2816 0 3885 -1 1068 -2
194 -2 -1943z"/>
<path d="M19195 3880 c0 -2137 1 -3011 2 -1942 2 1068 2 2816 0 3885 -1 1068
-2 194 -2 -1943z"/>
<path d="M11225 6268 c-35 -19 -55 -52 -55 -91 0 -31 7 -46 34 -73 28 -28 42
-34 76 -34 76 0 119 39 120 108 0 35 -6 49 -29 73 -25 24 -37 29 -78 29 -26 0
-57 -6 -68 -12z"/>
<path d="M13562 5778 l3 -433 98 -3 97 -3 0 436 0 435 -100 0 -100 0 2 -432z"/>
<path d="M10647 6170 c-127 -32 -197 -116 -197 -237 0 -73 30 -135 82 -173 22
-16 83 -43 136 -61 122 -40 168 -65 182 -99 27 -64 -42 -121 -120 -100 -41 11
-70 41 -70 72 0 16 -11 18 -105 18 l-105 0 0 -33 c0 -80 83 -172 182 -202 69
-20 201 -19 263 1 70 25 139 95 159 164 31 103 -3 193 -92 247 -29 17 -96 46
-149 64 -116 40 -153 68 -153 112 0 38 7 50 37 66 39 20 82 13 114 -18 16 -16
29 -37 29 -45 0 -14 16 -16 105 -16 l105 0 0 30 c0 77 -71 164 -159 196 -55
19 -192 27 -244 14z"/>
<path d="M13097 5996 c-26 -7 -65 -27 -87 -44 l-39 -32 -3 38 -3 37 -97 3 -98
3 0 -486 0 -486 98 3 97 3 3 193 c1 116 6 192 12 192 6 0 10 -4 10 -10 0 -15
82 -58 134 -70 95 -21 199 20 263 104 88 114 95 300 19 431 -60 102 -192 154
-309 121z m91 -186 c67 -41 89 -149 47 -231 -37 -70 -145 -93 -205 -43 -43 37
-60 75 -60 136 0 96 55 158 140 158 28 0 58 -8 78 -20z"/>
<path d="M14124 6000 c-103 -22 -186 -85 -225 -173 -31 -69 -34 -227 -6 -297
42 -103 130 -170 245 -189 143 -23 271 33 341 149 39 65 34 70 -75 70 -93 0
-98 -1 -131 -30 -28 -25 -42 -30 -83 -30 -40 0 -55 5 -80 28 -16 15 -33 42
-36 60 l-6 32 226 0 226 0 0 63 c0 136 -56 234 -162 286 -70 34 -163 46 -234
31z m151 -176 c26 -17 50 -67 40 -83 -4 -7 -52 -11 -126 -11 -112 0 -119 1
-119 20 0 25 55 87 83 93 34 8 96 -2 122 -19z"/>
<path d="M11190 5670 l0 -331 98 3 97 3 0 325 0 325 -97 3 -98 3 0 -331z"/>
<path d="M11532 5673 l3 -328 95 0 95 0 5 205 c3 140 9 212 18 227 18 33 64
53 118 53 39 0 51 -5 80 -34 l34 -34 0 -195 c0 -108 3 -202 6 -211 5 -13 24
-16 100 -16 l94 0 0 190 c0 213 10 259 61 285 42 22 111 19 144 -7 49 -38 55
-70 55 -278 l0 -191 96 3 96 3 -2 225 c0 124 -5 241 -10 261 -16 60 -66 118
-123 145 -107 49 -254 23 -322 -58 l-26 -31 -33 37 c-19 20 -53 45 -77 56 -84
38 -234 20 -278 -33 -21 -26 -31 -20 -31 18 l0 35 -100 0 -100 0 2 -327z"/>
<path d="M5245 5259 c-449 -42 -880 -251 -1201 -580 -303 -312 -483 -683 -539
-1112 -8 -65 -15 -147 -15 -183 l0 -64 -880 0 c-830 0 -881 1 -886 18 -30 99
-127 142 -205 89 -42 -28 -59 -60 -59 -113 0 -144 200 -181 256 -47 l14 33
880 0 880 0 0 -52 c0 -227 75 -529 191 -768 101 -210 194 -343 354 -509 172
-178 345 -304 557 -406 550 -264 1187 -256 1738 20 152 77 387 251 506 376
313 329 502 744 543 1189 6 63 11 123 11 133 0 16 50 17 903 17 l903 0 18 -40
c16 -36 70 -80 83 -67 2 3 -5 8 -16 12 -26 8 -61 52 -61 76 0 14 7 19 25 19
14 0 25 -4 25 -10 0 -17 44 -50 68 -50 82 0 107 117 31 144 -41 14 -79 0 -92
-34 -9 -24 -17 -30 -40 -30 -25 0 -28 3 -22 23 25 85 110 121 183 77 32 -20
62 -71 62 -106 0 -31 -34 -87 -64 -105 -17 -10 -25 -19 -18 -19 21 0 80 63 88
93 17 69 -33 150 -101 163 -73 13 -137 -21 -156 -87 l-12 -39 -902 0 -902 0
-12 142 c-21 259 -88 503 -196 720 -365 731 -1126 1153 -1940 1077z m376 -79
c896 -91 1599 -804 1679 -1701 16 -179 30 -159 -113 -159 l-123 0 -12 133
c-20 218 -68 389 -163 582 -79 160 -171 287 -304 420 -231 231 -500 376 -825
446 -90 20 -135 23 -315 23 -180 0 -225 -3 -313 -22 -162 -35 -257 -68 -407
-142 -511 -252 -860 -772 -892 -1332 l-6 -108 -129 0 -128 0 0 68 c0 37 7 115
15 173 61 464 295 891 650 1187 390 326 890 482 1386 432z m92 -290 c257 -44
486 -144 702 -306 90 -67 239 -218 310 -314 162 -216 271 -491 305 -764 17
-129 7 -370 -19 -498 -85 -417 -326 -779 -676 -1013 -187 -126 -371 -202 -597
-247 -145 -29 -422 -32 -563 -6 -586 109 -1059 514 -1244 1066 -62 187 -75
275 -75 512 0 237 11 313 74 503 183 551 665 965 1239 1067 150 26 392 26 544
0z m-4063 -1465 c50 -26 80 -105 40 -105 -11 0 -20 7 -20 15 0 25 -38 55 -70
55 -38 0 -80 -39 -80 -75 0 -33 42 -75 75 -75 16 0 38 12 57 30 49 50 75 37
41 -21 -18 -31 -67 -59 -103 -59 -60 0 -120 61 -120 122 0 98 95 157 180 113z
m2183 -231 c20 -317 150 -646 357 -899 324 -396 813 -615 1325 -592 591 27
1107 363 1375 896 91 183 139 355 162 580 l12 121 117 0 c65 0 120 -4 124 -9
3 -6 1 -63 -5 -128 -56 -614 -401 -1157 -929 -1463 -271 -157 -614 -249 -926
-250 -857 -1 -1609 583 -1820 1414 -29 113 -55 293 -55 376 l0 60 128 0 129 0
6 -106z"/>
<path d="M15025 4680 c-124 -25 -187 -96 -197 -220 -3 -32 -6 -35 -38 -40
l-35 -5 0 -80 0 -80 38 -3 37 -3 0 -240 0 -239 100 0 100 0 0 239 0 240 53 3
52 3 3 83 3 82 -56 0 c-51 0 -55 2 -55 24 0 35 30 66 67 69 l33 2 0 88 0 87
-32 -1 c-18 -1 -51 -5 -73 -9z"/>
<path d="M16027 4634 c-4 -4 -7 -200 -7 -435 l0 -428 96 -3 c58 -2 98 1 100 7
3 6 3 201 2 435 l-3 425 -90 3 c-50 1 -94 0 -98 -4z"/>
<path d="M10460 4178 l0 -413 100 3 100 3 0 410 0 409 -100 0 -100 0 0 -412z"/>
<path d="M14368 4503 l-3 -78 -37 -3 -38 -3 0 -85 0 -84 40 0 40 0 0 -165 c0
-126 4 -174 15 -202 36 -85 90 -112 223 -113 l93 0 -3 83 -3 82 -52 3 c-28 2
-56 9 -62 16 -8 9 -11 63 -9 156 l3 143 60 1 60 1 3 83 3 82 -65 0 -65 0 -3
78 -3 77 -97 3 -97 3 -3 -78z"/>
<path d="M11120 4418 c-19 -5 -52 -23 -72 -39 -20 -16 -39 -29 -42 -29 -3 0
-6 16 -6 35 l0 35 -100 0 -100 0 0 -323 c0 -178 2 -326 4 -328 2 -2 47 -3 100
-1 l96 3 0 177 c0 193 8 242 47 278 29 27 102 33 148 12 52 -24 60 -55 63
-270 l4 -198 99 0 99 0 0 200 c0 219 5 246 55 268 39 18 106 15 142 -8 45 -27
53 -67 53 -277 l0 -183 101 0 101 0 -4 233 c-3 212 -5 236 -24 277 -75 158
-287 197 -419 77 l-47 -42 -42 41 c-63 63 -165 88 -256 62z"/>
<path d="M12369 4421 c-40 -13 -72 -32 -101 -59 l-28 -26 0 42 0 42 -100 0
-100 0 0 -485 0 -485 100 0 100 0 0 195 c0 107 4 195 8 195 5 0 17 -10 28 -21
33 -37 93 -59 164 -58 120 1 200 50 251 155 32 65 34 74 34 179 0 94 -3 117
-23 160 -28 60 -83 119 -137 147 -44 23 -152 33 -196 19z m90 -190 c42 -29 64
-67 69 -120 16 -172 -199 -251 -269 -98 -68 151 74 306 200 218z"/>
<path d="M13010 4421 c-51 -16 -108 -51 -135 -83 -109 -129 -106 -365 6 -493
47 -54 119 -85 195 -85 74 0 117 13 166 51 20 16 39 29 42 29 3 0 6 -16 6 -35
l0 -35 100 0 100 0 0 325 0 325 -100 0 -100 0 0 -35 c0 -19 -3 -35 -6 -35 -3
0 -21 12 -40 26 -62 48 -161 67 -234 45z m172 -171 c109 -31 141 -202 52 -280
-40 -35 -72 -45 -118 -36 -136 26 -160 249 -33 307 49 22 51 22 99 9z"/>
<path d="M13803 4412 c-72 -26 -119 -60 -153 -111 -49 -72 -63 -132 -58 -232
8 -139 58 -221 171 -281 36 -20 57 -23 152 -23 103 0 113 2 163 30 72 39 121
101 146 183 7 22 7 22 -103 22 -71 0 -111 -4 -111 -10 0 -6 -12 -22 -26 -35
-37 -35 -101 -34 -142 0 -75 63 -63 248 18 290 52 27 89 20 131 -25 l38 -40
95 0 c57 0 97 4 101 11 4 6 -7 40 -25 75 -51 104 -132 153 -265 160 -61 4 -92
0 -132 -14z"/>
<path d="M15222 4188 c3 -218 5 -236 26 -283 30 -65 56 -93 117 -121 68 -32
152 -32 220 0 28 12 56 30 64 39 18 22 31 12 31 -24 l0 -29 100 0 100 0 0 325
0 326 -102 -3 -103 -3 3 -176 c2 -107 -1 -192 -7 -217 -32 -116 -191 -127
-237 -16 -10 24 -14 85 -14 224 l0 190 -101 0 -101 0 4 -232z"/>
<path d="M15587 3073 c-4 -3 -7 -69 -7 -145 l0 -139 -33 25 c-72 55 -169 71
-259 44 -57 -17 -132 -88 -164 -155 -52 -111 -41 -282 24 -378 93 -135 282
-168 393 -68 l39 35 0 -41 0 -41 100 0 100 0 0 435 0 435 -93 0 c-52 0 -97 -3
-100 -7z m-69 -400 c61 -46 80 -148 42 -223 -50 -99 -195 -97 -247 3 -32 62
-16 164 34 209 45 41 124 46 171 11z"/>
<path d="M10460 2620 l0 -410 100 0 100 0 2 247 3 247 163 -247 164 -247 104
0 104 0 -2 408 -3 407 -102 3 -103 3 -2 -248 -3 -247 -163 247 -163 247 -99 0
-100 0 0 -410z"/>
<path d="M12260 2849 c-196 -88 -241 -409 -81 -569 96 -96 249 -107 356 -26
l35 27 0 -35 0 -36 105 0 105 0 0 325 0 326 -102 -3 -103 -3 -5 -34 c-5 -32
-6 -33 -20 -16 -50 61 -202 84 -290 44z m246 -174 c62 -40 85 -149 46 -225
-48 -96 -191 -96 -244 0 -26 47 -21 147 8 187 45 61 130 78 190 38z"/>
<path d="M13210 2849 c-25 -11 -55 -30 -67 -41 l-23 -21 0 36 0 37 -100 0
-100 0 0 -325 0 -325 100 0 100 0 0 200 c0 215 5 241 52 274 34 24 109 21 143
-6 49 -38 55 -70 55 -278 l0 -190 101 0 101 0 -4 238 c-3 225 -4 239 -26 284
-59 120 -209 173 -332 117z"/>
<path d="M13890 2861 c-121 -37 -197 -128 -220 -263 -28 -161 44 -309 179
-372 68 -31 216 -30 286 2 63 29 110 74 141 134 43 84 39 88 -73 88 l-98 0
-31 -37 c-29 -35 -36 -38 -82 -38 -81 0 -122 54 -122 160 0 102 46 165 122
165 32 0 47 -7 75 -35 l36 -36 102 3 103 3 -20 52 c-26 70 -92 136 -163 162
-58 22 -182 28 -235 12z"/>
<path d="M14578 2855 c-64 -21 -149 -100 -179 -167 -33 -74 -34 -230 -2 -300
30 -66 95 -132 156 -159 75 -34 219 -34 294 0 75 33 163 136 163 191 0 6 -38
10 -101 10 -99 0 -102 -1 -128 -29 -57 -61 -157 -45 -194 31 -10 21 -16 42
-12 48 4 6 89 10 232 10 l226 0 -6 73 c-3 39 -11 89 -18 109 -21 63 -79 130
-144 163 -51 26 -71 30 -149 32 -59 2 -108 -3 -138 -12z m208 -179 c19 -19 34
-43 34 -55 0 -20 -5 -21 -120 -21 -110 0 -120 1 -120 19 0 24 37 70 64 81 11
5 41 9 65 9 36 1 48 -4 77 -33z"/>
<path d="M11330 2642 c0 -245 9 -297 62 -358 83 -95 243 -111 340 -33 20 16
39 29 42 29 3 0 6 -16 6 -35 l0 -35 100 0 100 0 0 325 0 325 -100 0 -100 0 0
-195 c0 -226 -7 -256 -64 -280 -73 -31 -141 -11 -170 49 -13 28 -16 69 -16
230 l0 196 -100 0 -100 0 0 -218z"/>
<path d="M14160 1645 c0 -45 -1 -47 -22 -39 -13 4 -43 8 -67 8 -35 0 -48 -5
-67 -27 -66 -77 -25 -197 68 -197 22 0 49 5 60 11 15 8 22 8 28 -1 4 -7 16
-10 26 -8 18 3 19 14 19 148 0 143 0 145 -22 148 -21 3 -23 -1 -23 -43z m-30
-85 c48 -48 26 -122 -38 -128 -66 -7 -97 74 -47 123 29 30 58 32 85 5z"/>
<path d="M10490 1535 l0 -145 29 0 c29 0 30 2 33 52 2 28 8 53 13 55 6 2 23
-22 38 -52 26 -53 28 -55 68 -55 l41 0 -23 38 c-13 20 -27 44 -32 53 -7 11 -1
23 22 46 33 33 37 55 21 98 -13 35 -65 55 -145 55 l-65 0 0 -145z"/>
<path d="M10809 1657 c-39 -26 -69 -79 -69 -122 0 -78 69 -145 149 -145 85 0
144 60 144 146 0 113 -130 184 -224 121z m121 -47 c28 -15 43 -69 29 -108 -18
-54 -76 -69 -120 -33 -19 15 -24 29 -24 66 0 37 5 51 24 66 25 21 62 25 91 9z"/>
<path d="M11080 1535 l0 -145 30 0 30 0 0 145 0 145 -30 0 -30 0 0 -145z"/>
<path d="M11618 1674 c-5 -4 -8 -70 -8 -146 l0 -138 74 0 c59 0 79 4 107 23
89 59 87 196 -3 243 -33 17 -159 31 -170 18z m165 -74 c26 -29 29 -38 24 -79
-7 -61 -41 -91 -103 -91 l-44 0 0 106 0 107 47 -6 c37 -4 54 -12 76 -37z"/>
<path d="M13030 1536 l0 -146 70 0 c81 0 125 17 134 54 7 30 -7 71 -29 83 -14
8 -13 11 5 28 27 25 26 66 -5 95 -20 19 -39 24 -100 28 l-75 5 0 -147z"/>
<path d="M14434 1661 c-53 -32 -74 -68 -74 -125 0 -98 59 -152 157 -144 42 4
60 11 83 33 17 16 30 32 30 37 0 16 -50 8 -70 -12 -24 -24 -86 -27 -117 -5
-49 35 -50 127 -2 171 29 26 92 25 122 -4 22 -21 67 -31 67 -14 0 19 -35 55
-66 68 -46 19 -93 17 -130 -5z"/>
<path d="M16970 1646 c0 -13 -7 -26 -15 -30 -8 -3 -15 -12 -15 -21 0 -8 7 -15
15 -15 12 0 15 -15 15 -79 0 -92 12 -111 66 -111 27 0 34 4 34 20 0 15 -7 20
-25 20 -24 0 -25 2 -25 75 0 73 1 75 25 75 18 0 25 5 25 20 0 15 -7 20 -25 20
-20 0 -25 5 -25 25 0 20 -5 25 -25 25 -20 0 -25 -5 -25 -24z"/>
<path d="M12148 1615 c-3 -3 13 -55 36 -115 40 -106 42 -110 71 -110 30 0 32
3 68 103 47 127 46 121 21 125 -18 3 -26 -9 -54 -88 -18 -50 -34 -89 -37 -87
-2 2 -16 42 -32 88 -21 64 -32 85 -47 87 -11 2 -22 0 -26 -3z"/>
<path d="M12424 1586 c-28 -28 -34 -42 -34 -75 0 -48 21 -96 49 -111 34 -18
106 -12 135 11 14 11 26 27 26 35 0 19 -34 18 -50 -1 -25 -30 -110 -10 -110
25 0 5 37 10 83 12 l82 3 3 33 c3 26 -3 39 -31 67 -29 29 -42 35 -77 35 -34 0
-48 -6 -76 -34z"/>
<path d="M12660 1505 c0 -106 1 -115 19 -115 17 0 19 9 23 81 3 84 17 109 58
109 41 0 55 -25 58 -109 4 -72 6 -81 23 -81 17 0 19 8 19 90 0 76 -3 93 -20
110 -27 27 -68 35 -104 21 -20 -7 -32 -8 -34 -1 -2 5 -12 10 -23 10 -18 0 -19
-8 -19 -115z"/>
<path d="M13464 1586 c-28 -28 -34 -42 -34 -75 0 -48 21 -96 49 -111 25 -13
87 -13 112 0 13 7 19 7 19 0 0 -5 11 -10 25 -10 l25 0 0 115 c0 109 -1 115
-20 115 -11 0 -23 -7 -26 -15 -5 -13 -8 -13 -27 0 -38 26 -85 19 -123 -19z
m120 -27 c31 -24 36 -81 9 -111 -23 -26 -78 -24 -97 4 -23 33 -20 83 6 108 28
25 48 25 82 -1z"/>
<path d="M13727 1613 c-4 -3 -7 -55 -7 -115 l0 -108 25 0 c25 0 25 1 25 78 0
85 14 112 57 112 39 0 53 -31 53 -113 0 -75 1 -77 25 -77 25 0 25 1 25 86 0
81 -1 87 -29 115 -32 31 -86 40 -109 17 -9 -9 -15 -9 -24 0 -13 13 -31 16 -41
5z"/>
<path d="M14724 1601 c-63 -39 -69 -138 -13 -185 33 -28 102 -36 140 -16 27
15 49 63 49 109 0 87 -101 140 -176 92z m106 -41 c25 -25 27 -86 3 -112 -23
-26 -78 -24 -97 4 -23 33 -20 75 9 103 29 30 58 32 85 5z"/>
<path d="M14950 1505 l0 -115 25 0 c25 0 25 1 25 78 0 64 4 82 18 95 25 22 48
21 72 -3 16 -16 20 -33 20 -95 0 -73 1 -75 25 -75 25 0 25 1 25 78 0 85 14
112 58 112 36 0 52 -37 52 -117 0 -72 0 -73 26 -73 l26 0 -4 91 c-3 85 -5 92
-31 115 -34 29 -85 32 -118 5 -24 -19 -25 -19 -48 0 -25 21 -72 25 -101 9 -13
-7 -21 -7 -25 0 -3 5 -15 10 -26 10 -18 0 -19 -8 -19 -115z"/>
<path d="M15377 1613 c-4 -3 -7 -55 -7 -115 l0 -108 25 0 c24 0 25 2 25 75 0
81 18 115 59 115 39 0 51 -26 51 -111 0 -78 0 -79 25 -79 24 0 25 2 25 75 0
62 4 79 20 95 54 54 100 4 100 -111 0 -52 2 -59 20 -59 18 0 20 7 20 80 0 89
-11 123 -47 139 -36 16 -67 13 -97 -10 l-26 -20 -26 20 c-30 23 -65 27 -97 10
-16 -9 -22 -9 -25 0 -4 12 -35 15 -45 4z"/>
<path d="M15800 1530 c0 -83 2 -93 25 -115 22 -23 31 -25 102 -22 l78 2 0 110
c0 106 -1 110 -22 113 -22 3 -23 0 -23 -70 0 -87 -16 -118 -60 -118 -44 0 -60
31 -60 117 0 66 -2 73 -20 73 -19 0 -20 -7 -20 -90z"/>
<path d="M16067 1613 c-4 -3 -7 -55 -7 -115 l0 -108 25 0 c24 0 25 2 25 75 0
62 4 79 20 95 23 23 49 25 75 6 14 -10 19 -30 23 -95 4 -71 7 -81 23 -81 17 0
19 9 19 88 0 75 -3 92 -20 110 -27 29 -66 38 -104 23 -20 -7 -32 -8 -34 -1 -4
11 -35 14 -45 3z"/>
<path d="M16474 1601 c-62 -38 -68 -139 -12 -186 45 -38 110 -35 151 7 32 33
32 33 9 36 -13 2 -32 -4 -41 -12 -10 -9 -32 -16 -49 -16 -58 0 -82 72 -41 124
25 32 50 33 89 5 17 -13 35 -19 45 -15 16 6 16 9 3 29 -32 48 -101 61 -154 28z"/>
<path d="M16704 1586 c-28 -28 -34 -42 -34 -75 0 -48 21 -96 49 -111 25 -13
87 -13 112 0 13 7 19 7 19 0 0 -5 11 -10 25 -10 l25 0 0 115 c0 109 -1 115
-20 115 -11 0 -23 -7 -26 -15 -5 -13 -8 -13 -27 0 -38 26 -85 19 -123 -19z
m126 -26 c25 -25 27 -86 3 -112 -23 -26 -78 -24 -97 4 -25 35 -20 83 10 107
33 26 58 27 84 1z"/>
<path d="M17274 1610 c-57 -23 -82 -107 -49 -170 20 -38 43 -50 99 -50 61 0
105 37 113 96 12 93 -75 160 -163 124z m91 -55 c47 -46 23 -125 -37 -125 -44
0 -68 25 -68 72 0 71 58 101 105 53z"/>
<path d="M17487 1613 c-4 -3 -7 -55 -7 -115 l0 -108 25 0 c24 0 25 2 25 75 0
81 18 115 59 115 39 0 51 -26 51 -111 0 -78 0 -79 25 -79 25 0 25 1 25 80 0
43 -5 90 -11 103 -19 42 -78 59 -122 36 -16 -9 -22 -9 -25 0 -4 12 -35 15 -45
4z"/>
<path d="M17765 1595 c-46 -45 -26 -82 58 -111 34 -11 47 -21 47 -35 0 -15 -7
-19 -35 -19 -22 0 -38 6 -41 15 -7 19 -54 20 -54 2 0 -8 10 -23 23 -35 31 -30
108 -31 137 -2 41 41 18 86 -56 110 -36 12 -49 22 -49 36 0 24 46 31 65 10 7
-9 23 -16 36 -16 21 0 22 2 13 24 -23 50 -104 62 -144 21z"/>
</g>
</svg>
