<?xml version="1.0" standalone="no"?>
<!DOCTYPE svg PUBLIC "-//W3C//DTD SVG 20010904//EN"
 "http://www.w3.org/TR/2001/REC-SVG-20010904/DTD/svg10.dtd">
<svg version="1.0" xmlns="http://www.w3.org/2000/svg"
 width="1920.000000pt" height="776.000000pt" viewBox="0 0 1920.000000 776.000000"
 preserveAspectRatio="xMidYMid meet">
<metadata>
Created by potrace 1.16, written by Peter Selinger 2001-2019
</metadata>
<g transform="translate(0.000000,776.000000) scale(0.100000,-0.100000)"
fill="#000000" stroke="none">
<path d="M5 3880 c0 -2137 1 -3011 2 -1942 2 1068 2 2816 0 3885 -1 1068 -2
194 -2 -1943z"/>
<path d="M19195 3880 c0 -2137 1 -3011 2 -1942 2 1068 2 2816 0 3885 -1 1068
-2 194 -2 -1943z"/>
<path d="M5402 7023 c-278 -477 -892 -1548 -892 -1554 0 -5 406 -9 935 -9 557
0 935 4 935 9 0 10 -916 1600 -930 1614 -4 5 -26 -22 -48 -60z m495 -741 c243
-422 445 -775 448 -785 7 -16 -42 -17 -900 -17 -836 0 -907 1 -901 16 17 44
892 1553 901 1553 6 0 209 -345 452 -767z"/>
<path d="M11199 6251 c-23 -24 -29 -38 -29 -73 1 -67 44 -108 115 -108 82 0
138 66 115 136 -17 51 -53 74 -117 74 -47 0 -59 -4 -84 -29z"/>
<path d="M13562 5778 l3 -433 98 -3 97 -3 0 436 0 435 -100 0 -100 0 2 -432z"/>
<path d="M10635 6167 c-129 -43 -185 -114 -185 -234 0 -127 58 -184 248 -247
121 -41 155 -66 155 -117 0 -45 -32 -69 -94 -69 -54 0 -84 20 -95 65 -6 25 -7
25 -115 25 l-108 0 5 -32 c10 -53 43 -116 77 -144 126 -107 363 -105 471 2 92
93 97 233 11 320 -41 40 -61 50 -250 119 -62 23 -95 55 -95 94 0 35 39 71 77
71 39 0 84 -29 95 -61 l10 -29 103 0 c57 0 106 3 108 8 10 16 -22 105 -50 140
-16 20 -55 50 -86 66 -48 24 -71 29 -149 32 -60 3 -107 -1 -133 -9z"/>
<path d="M11867 5999 c-46 -11 -89 -33 -106 -53 -21 -25 -31 -19 -31 19 l0 35
-100 0 -100 0 0 -330 0 -330 99 0 100 0 3 208 c3 228 8 247 69 272 45 19 116
7 148 -24 l26 -26 5 -213 5 -212 98 -3 97 -3 0 183 c0 101 5 200 10 220 6 20
25 49 42 63 28 24 39 27 85 23 62 -5 98 -33 113 -87 5 -20 10 -118 10 -219 l0
-183 98 3 97 3 0 230 c0 220 -1 232 -24 283 -43 97 -133 149 -251 146 -69 -2
-119 -24 -174 -74 l-43 -39 -22 29 c-45 61 -169 100 -254 79z"/>
<path d="M13099 6001 c-40 -13 -72 -32 -101 -59 l-28 -26 0 42 0 42 -100 0
-100 0 0 -485 0 -485 100 0 100 0 0 195 0 195 45 -34 c60 -46 136 -63 209 -47
146 33 236 159 236 332 0 190 -111 326 -275 335 -33 2 -72 0 -86 -5z m88 -191
c93 -56 88 -230 -7 -282 -99 -52 -210 21 -210 139 0 70 35 133 85 153 36 15
99 11 132 -10z"/>
<path d="M14113 6000 c-91 -19 -165 -77 -211 -165 -25 -45 -27 -60 -27 -160 0
-100 2 -115 28 -167 55 -111 156 -171 292 -172 90 -1 160 24 220 76 37 33 95
119 95 143 0 3 -47 5 -104 5 -103 0 -105 -1 -134 -30 -26 -25 -38 -30 -79 -30
-55 0 -86 17 -108 60 -32 62 -37 60 209 60 l225 0 3 33 c9 99 -33 221 -97 274
-75 64 -208 95 -312 73z m157 -178 c31 -23 56 -70 43 -83 -5 -5 -61 -8 -124
-7 l-114 3 3 24 c8 76 123 113 192 63z"/>
<path d="M11190 5670 l0 -331 98 3 97 3 3 328 2 327 -100 0 -100 0 0 -330z"/>
<path d="M5245 5260 c-357 -37 -710 -177 -1000 -399 -97 -74 -271 -248 -349
-351 -168 -218 -288 -466 -350 -720 -29 -123 -56 -313 -56 -406 l0 -64 -878 0
-878 0 -19 43 c-65 138 -255 100 -255 -51 0 -143 201 -178 256 -45 l14 33 880
0 880 0 0 -52 c0 -77 18 -218 41 -333 55 -265 179 -538 348 -765 69 -93 232
-263 326 -340 433 -354 1007 -504 1569 -409 865 147 1525 866 1605 1749 6 63
11 123 11 133 0 16 50 17 904 17 l904 0 10 -30 c13 -35 58 -80 81 -80 9 0 3 8
-16 20 -33 20 -53 48 -53 74 0 26 36 18 68 -14 61 -60 130 -23 123 65 -3 28
-38 55 -72 55 -31 0 -69 -30 -69 -55 0 -10 -10 -15 -30 -15 -36 0 -38 15 -7
61 41 61 105 76 165 39 32 -20 62 -71 62 -106 0 -31 -34 -87 -64 -105 -17 -10
-25 -19 -18 -19 21 0 80 63 88 93 17 69 -33 150 -101 163 -73 13 -137 -21
-156 -87 l-12 -39 -902 0 -902 0 -12 141 c-69 829 -621 1506 -1413 1734 -203
59 -512 86 -723 65z m376 -80 c643 -65 1200 -452 1492 -1035 114 -228 171
-445 192 -732 l7 -93 -124 0 -124 0 -12 133 c-20 218 -68 389 -163 582 -189
384 -533 682 -938 815 -189 61 -275 74 -506 74 -180 0 -225 -3 -315 -23 -153
-33 -268 -73 -415 -146 -504 -249 -850 -770 -882 -1325 l-6 -110 -129 0 -128
0 0 68 c1 154 42 370 105 552 282 807 1097 1325 1946 1240z m92 -290 c332 -56
608 -201 853 -445 239 -238 375 -488 446 -818 30 -140 32 -443 4 -592 -138
-744 -760 -1282 -1516 -1312 -705 -28 -1350 423 -1574 1101 -58 174 -70 263
-70 496 0 237 12 316 75 503 184 552 663 966 1235 1066 153 27 393 28 547 1z
m-4064 -1464 c53 -28 84 -106 41 -106 -11 0 -20 7 -20 15 0 23 -41 55 -72 55
-36 0 -78 -40 -78 -75 0 -33 42 -75 75 -75 16 0 38 12 57 30 29 30 58 39 58
20 0 -44 -67 -100 -120 -100 -60 0 -120 61 -120 122 0 97 95 157 179 114z
m2184 -231 c28 -374 181 -720 439 -990 328 -344 772 -523 1238 -502 165 8 289
30 432 77 421 140 748 422 947 819 93 183 141 357 163 579 l12 122 117 0 c65
0 120 -4 124 -9 9 -15 -14 -236 -36 -346 -88 -441 -356 -859 -724 -1130 -198
-146 -399 -240 -649 -306 -927 -241 -1904 283 -2221 1191 -62 178 -104 398
-105 543 l0 58 128 -3 127 -3 8 -100z"/>
<path d="M6118 3840 c79 -120 126 -253 141 -394 36 -358 -152 -698 -474 -852
-124 -60 -189 -76 -336 -81 -254 -10 -443 60 -631 234 l-83 78 60 -65 c202
-218 379 -306 635 -317 195 -9 355 35 515 142 178 118 300 293 355 512 25 95
27 270 5 375 -27 125 -105 286 -182 373 l-35 40 30 -45z"/>
<path d="M15040 4683 c-61 -10 -119 -36 -147 -66 -42 -44 -53 -68 -61 -135 -7
-56 -8 -57 -42 -62 l-35 -5 0 -80 0 -80 38 -3 37 -3 0 -240 0 -239 100 0 100
0 0 239 0 240 53 3 52 3 3 83 3 82 -56 0 c-51 0 -55 2 -55 23 0 35 26 64 65
71 l35 7 0 84 0 85 -32 -1 c-18 -1 -44 -4 -58 -6z"/>
<path d="M16020 4205 l0 -435 100 0 100 0 -2 433 -3 432 -97 3 -98 3 0 -436z"/>
<path d="M10460 4180 l0 -410 100 0 100 0 0 410 0 410 -100 0 -100 0 0 -410z"/>
<path d="M14370 4516 c0 -86 -5 -96 -46 -96 l-34 0 0 -85 0 -85 40 0 40 0 0
-165 c0 -126 4 -174 15 -202 36 -85 90 -112 223 -113 l93 0 -3 83 -3 82 -50 3
c-27 2 -55 8 -62 14 -9 8 -13 50 -13 154 l0 143 63 3 62 3 3 83 3 82 -66 0
-65 0 0 80 0 80 -100 0 -100 0 0 -64z"/>
<path d="M11110 4415 c-25 -8 -57 -26 -72 -40 -15 -14 -30 -25 -33 -25 -3 0
-5 16 -5 35 l0 35 -100 0 -100 0 0 -323 c0 -178 2 -326 4 -328 2 -2 47 -3 99
-1 l96 3 3 197 c4 214 10 242 59 268 16 8 48 14 73 14 36 0 52 -6 77 -28 41
-37 48 -78 49 -284 l0 -168 100 0 100 0 0 206 0 206 34 34 c29 29 41 34 80 34
55 0 90 -15 113 -49 15 -22 18 -55 21 -228 l3 -203 101 0 100 0 -4 233 c-3
210 -5 236 -24 277 -40 86 -142 150 -239 150 -58 0 -131 -29 -179 -71 l-46
-41 -44 40 c-71 65 -170 86 -266 57z"/>
<path d="M12340 4410 c-25 -12 -57 -33 -72 -47 l-28 -27 0 42 0 42 -100 0
-100 0 0 -485 0 -485 100 0 100 0 0 195 c0 107 4 195 8 195 5 0 17 -10 28 -21
33 -37 93 -59 167 -59 117 0 196 50 249 158 31 62 33 73 33 172 0 125 -18 182
-79 248 -56 61 -106 84 -191 89 -56 3 -79 0 -115 -17z m135 -191 c85 -75 64
-229 -37 -275 -71 -32 -152 2 -182 76 -31 78 -15 154 43 203 27 22 42 27 86
27 46 0 59 -5 90 -31z"/>
<path d="M12981 4413 c-63 -22 -133 -95 -161 -169 -31 -81 -32 -215 -1 -295
28 -74 83 -136 145 -165 94 -44 235 -26 292 37 26 28 34 23 34 -21 l0 -41 98
3 97 3 3 328 2 327 -100 0 -100 0 0 -35 c0 -19 -3 -35 -6 -35 -3 0 -21 12 -40
26 -70 54 -174 68 -263 37z m250 -189 c11 -10 28 -32 36 -47 19 -38 19 -127
-1 -165 -48 -93 -171 -107 -233 -26 -53 70 -37 203 31 245 41 26 135 22 167
-7z"/>
<path d="M13824 4421 c-59 -14 -137 -65 -170 -111 -50 -68 -67 -135 -62 -239
6 -138 57 -223 171 -283 36 -20 57 -23 152 -23 103 0 113 2 164 30 72 40 121
101 146 183 6 22 6 22 -104 22 -71 0 -111 -4 -111 -10 0 -6 -12 -22 -26 -35
-40 -37 -106 -35 -144 3 -52 52 -63 168 -24 244 35 68 132 75 181 13 l28 -35
97 0 c58 0 99 4 103 11 4 6 -7 39 -25 75 -37 75 -96 126 -173 149 -53 16 -150
18 -203 6z"/>
<path d="M15222 4188 c3 -218 5 -236 26 -283 30 -65 56 -93 117 -121 87 -41
193 -30 268 28 l37 29 0 -35 c0 -44 13 -48 125 -44 l80 3 3 328 2 328 -101 -3
-101 -3 1 -160 c2 -208 -7 -260 -48 -297 -66 -59 -177 -26 -201 60 -5 20 -10
119 -10 220 l0 182 -101 0 -101 0 4 -232z"/>
<path d="M15587 3073 c-4 -3 -7 -71 -7 -151 l0 -144 -34 30 c-108 95 -282 78
-375 -35 -52 -63 -74 -135 -74 -238 1 -148 54 -252 159 -305 40 -20 64 -25
124 -25 81 0 121 15 173 63 l27 26 0 -42 0 -42 100 0 100 0 0 435 0 435 -93 0
c-52 0 -97 -3 -100 -7z m-79 -393 c50 -31 72 -75 72 -145 0 -101 -50 -158
-140 -159 -53 -1 -87 18 -124 68 -29 38 -29 137 -1 184 39 66 130 90 193 52z"/>
<path d="M10460 2620 l0 -410 100 0 100 0 0 252 0 252 166 -252 166 -252 99 0
99 0 0 410 0 411 -97 -3 -98 -3 -2 -243 c0 -134 -3 -245 -5 -247 -2 -2 -77
108 -167 246 l-164 249 -98 0 -99 0 0 -410z"/>
<path d="M3083 2998 c-12 -15 -933 -1609 -933 -1614 0 -2 423 -4 940 -4 517 0
940 2 940 4 0 4 -928 1615 -935 1624 -1 1 -7 -3 -12 -10z m453 -788 c240 -415
442 -767 450 -782 l15 -28 -911 0 -911 0 32 58 c34 60 217 376 629 1090 135
232 248 421 252 420 4 -2 204 -343 444 -758z"/>
<path d="M7350 2204 c-256 -444 -466 -810 -468 -815 -2 -5 396 -9 938 -9 552
0 940 4 938 9 -8 22 -934 1620 -938 1621 -3 0 -214 -363 -470 -806z m930 -19
l450 -780 -455 -3 c-250 -1 -660 -1 -910 0 l-455 3 452 783 c248 430 455 781
459 780 5 -2 211 -354 459 -783z"/>
<path d="M12275 2855 c-94 -35 -156 -116 -181 -236 -33 -161 26 -317 147 -384
96 -53 238 -38 303 34 28 30 36 26 36 -19 l0 -40 95 0 95 0 0 325 0 325 -95 0
-95 0 0 -40 c0 -22 -2 -40 -5 -40 -3 0 -18 12 -33 26 -15 14 -40 32 -57 41
-42 22 -160 27 -210 8z m213 -169 c94 -49 117 -181 46 -265 -65 -77 -191 -58
-230 35 -21 50 -18 133 6 172 39 64 118 89 178 58z"/>
<path d="M13228 2853 c-26 -10 -61 -30 -77 -44 l-30 -26 -3 36 -3 36 -97 3
-98 3 0 -326 0 -326 98 3 97 3 5 213 5 214 33 29 c27 24 41 29 85 29 32 0 61
-6 76 -16 44 -31 51 -69 51 -279 l0 -195 101 0 101 0 -4 233 c-3 215 -5 236
-26 282 -13 27 -30 58 -40 68 -59 66 -185 93 -274 60z"/>
<path d="M13873 2852 c-74 -26 -136 -82 -169 -149 -22 -45 -29 -74 -32 -143
-5 -109 14 -180 67 -247 98 -125 322 -149 453 -50 45 34 92 103 104 150 l6 27
-100 0 -100 0 -35 -35 c-27 -27 -43 -35 -72 -35 -48 0 -91 26 -110 66 -17 36
-20 149 -5 189 29 76 130 103 184 49 14 -15 26 -31 26 -35 0 -5 47 -9 105 -9
77 0 105 3 105 13 0 30 -50 115 -88 149 -58 53 -104 69 -202 74 -66 4 -97 0
-137 -14z"/>
<path d="M14595 2857 c-96 -32 -149 -80 -189 -167 -64 -143 -30 -324 78 -416
47 -40 146 -74 216 -74 67 0 168 34 213 71 33 27 97 120 97 142 0 4 -46 7
-102 7 -98 0 -103 -1 -131 -27 -24 -24 -37 -28 -82 -28 -47 0 -59 4 -85 30
-16 17 -32 45 -36 63 l-6 32 225 0 c257 0 245 -4 232 88 -17 126 -72 210 -170
259 -61 31 -195 41 -260 20z m168 -158 c31 -16 57 -50 57 -76 0 -23 -2 -23
-125 -23 -69 0 -125 3 -125 6 0 20 34 72 58 86 31 20 103 23 135 7z"/>
<path d="M11332 2623 c3 -226 4 -240 27 -286 13 -26 40 -61 60 -78 37 -30 115
-59 161 -59 48 0 130 30 165 61 l35 31 0 -41 0 -41 100 0 100 0 0 325 0 325
-100 0 -100 0 0 -202 c0 -185 -2 -206 -20 -236 -45 -74 -175 -69 -215 8 -12
23 -15 70 -15 230 l0 200 -101 0 -101 0 4 -237z"/>
<path d="M14160 1644 c0 -44 -1 -46 -22 -38 -13 4 -43 8 -67 8 -35 0 -48 -5
-67 -27 -66 -77 -25 -197 68 -197 22 0 49 5 61 11 16 9 22 9 25 0 2 -6 12 -11
23 -11 18 0 19 9 19 150 0 143 -1 150 -20 150 -17 0 -20 -7 -20 -46z m-29 -83
c48 -39 19 -131 -43 -131 -63 0 -91 78 -43 125 29 30 55 32 86 6z"/>
<path d="M10490 1535 l0 -145 29 0 c29 0 30 2 33 52 2 28 8 53 13 55 6 2 23
-22 38 -52 26 -53 28 -55 68 -55 l41 0 -23 38 c-13 20 -27 44 -32 53 -7 11 -1
23 22 46 33 33 37 55 21 98 -13 35 -65 55 -145 55 l-65 0 0 -145z"/>
<path d="M10809 1657 c-39 -26 -69 -79 -69 -122 0 -78 69 -145 149 -145 85 0
144 60 144 146 0 113 -130 184 -224 121z m121 -47 c28 -15 43 -69 29 -108 -18
-54 -76 -69 -120 -33 -19 15 -24 29 -24 66 0 37 5 51 24 66 25 21 62 25 91 9z"/>
<path d="M11080 1535 l0 -145 30 0 30 0 0 145 0 145 -30 0 -30 0 0 -145z"/>
<path d="M11618 1674 c-5 -4 -8 -70 -8 -146 l0 -138 74 0 c59 0 79 4 107 23
89 59 87 196 -3 243 -33 17 -159 31 -170 18z m137 -50 c40 -19 60 -61 52 -112
-9 -52 -46 -82 -103 -82 l-44 0 0 105 0 105 31 0 c17 0 46 -7 64 -16z"/>
<path d="M13030 1536 l0 -146 70 0 c82 0 125 18 134 55 7 28 -17 85 -36 85 -6
0 -2 10 10 23 29 31 28 68 -3 97 -20 19 -39 24 -100 28 l-75 5 0 -147z"/>
<path d="M14434 1661 c-53 -32 -74 -68 -74 -125 0 -98 59 -152 157 -144 42 4
60 11 83 33 17 16 30 32 30 37 0 16 -50 8 -70 -12 -24 -24 -86 -27 -117 -5
-49 35 -50 127 -2 171 29 26 92 25 122 -4 22 -21 67 -31 67 -14 0 19 -35 55
-66 68 -46 19 -93 17 -130 -5z"/>
<path d="M16970 1646 c0 -13 -7 -26 -15 -30 -8 -3 -15 -12 -15 -21 0 -8 7 -15
15 -15 12 0 15 -15 15 -78 0 -90 14 -112 68 -112 25 0 32 4 32 20 0 15 -7 20
-25 20 -24 0 -25 2 -25 75 0 73 1 75 25 75 18 0 25 5 25 20 0 15 -7 20 -25 20
-20 0 -25 5 -25 25 0 20 -5 25 -25 25 -20 0 -25 -5 -25 -24z"/>
<path d="M12150 1608 c0 -7 16 -59 37 -115 37 -100 39 -103 68 -103 30 0 32 3
68 103 47 127 46 121 21 125 -18 3 -26 -9 -54 -88 -18 -50 -34 -89 -37 -87 -2
2 -16 42 -32 88 -22 68 -32 85 -49 87 -13 2 -22 -2 -22 -10z"/>
<path d="M12424 1586 c-28 -28 -34 -42 -34 -75 0 -48 21 -96 49 -111 34 -18
106 -12 135 11 14 11 26 27 26 35 0 19 -34 18 -50 -1 -25 -30 -110 -10 -110
25 0 5 37 10 83 12 l82 3 3 33 c3 26 -3 39 -31 67 -29 29 -42 35 -77 35 -34 0
-48 -6 -76 -34z"/>
<path d="M12660 1505 c0 -106 1 -115 19 -115 17 0 19 9 23 81 3 84 17 109 58
109 41 0 55 -25 58 -109 4 -72 6 -81 23 -81 17 0 19 8 19 90 0 76 -3 93 -20
110 -27 27 -68 35 -104 21 -20 -7 -32 -8 -34 -1 -2 5 -12 10 -23 10 -18 0 -19
-8 -19 -115z"/>
<path d="M13464 1586 c-28 -28 -34 -42 -34 -75 0 -48 21 -96 49 -111 25 -13
87 -13 112 0 13 7 19 7 19 0 0 -5 11 -10 25 -10 l25 0 0 115 c0 109 -1 115
-20 115 -11 0 -23 -7 -26 -15 -5 -13 -8 -13 -27 0 -38 26 -85 19 -123 -19z
m123 -28 c28 -26 31 -82 6 -110 -23 -26 -78 -24 -97 4 -23 33 -20 83 6 108 28
26 56 25 85 -2z"/>
<path d="M13727 1613 c-4 -3 -7 -55 -7 -115 l0 -108 25 0 c25 0 25 1 25 78 0
85 14 112 57 112 39 0 53 -31 53 -113 0 -75 1 -77 25 -77 25 0 25 1 25 86 0
81 -1 87 -29 115 -31 30 -61 36 -105 19 -16 -6 -27 -6 -31 0 -7 11 -29 13 -38
3z"/>
<path d="M14724 1601 c-63 -39 -69 -138 -13 -185 23 -20 42 -26 77 -26 73 1
112 42 112 119 0 87 -101 140 -176 92z m106 -41 c25 -25 27 -86 3 -112 -23
-26 -78 -24 -97 4 -23 33 -20 75 9 103 29 30 58 32 85 5z"/>
<path d="M14950 1505 l0 -115 25 0 c25 0 25 1 25 78 0 64 4 82 18 95 25 22 48
21 72 -3 16 -16 20 -33 20 -95 0 -73 1 -75 25 -75 25 0 25 1 25 78 0 64 4 82
18 95 25 22 48 21 72 -3 16 -16 20 -33 20 -95 0 -73 1 -75 25 -75 24 0 25 2
25 75 0 110 -28 155 -98 155 -16 0 -40 -9 -53 -19 -24 -19 -25 -19 -48 0 -26
21 -72 25 -104 8 -16 -9 -22 -9 -25 0 -2 6 -12 11 -23 11 -18 0 -19 -8 -19
-115z"/>
<path d="M15377 1613 c-4 -3 -7 -55 -7 -115 l0 -108 25 0 c24 0 25 2 25 75 0
81 18 115 59 115 39 0 51 -26 51 -111 0 -78 0 -79 25 -79 24 0 25 2 25 75 0
62 4 79 20 95 54 54 100 4 100 -111 0 -52 2 -59 20 -59 19 0 20 7 20 88 -1 90
-7 109 -47 130 -32 18 -67 14 -97 -9 l-26 -20 -26 20 c-30 23 -65 27 -97 10
-16 -9 -22 -9 -25 0 -4 12 -35 15 -45 4z"/>
<path d="M15800 1530 c0 -83 2 -93 24 -115 22 -21 32 -24 103 -23 l78 1 -3
114 c-3 104 -5 113 -23 113 -17 0 -19 -7 -19 -73 0 -86 -16 -117 -60 -117 -44
0 -60 31 -60 117 0 66 -2 73 -20 73 -19 0 -20 -7 -20 -90z"/>
<path d="M16067 1613 c-4 -3 -7 -55 -7 -115 l0 -108 25 0 c24 0 25 2 25 75 0
62 4 79 20 95 23 23 49 25 75 6 14 -10 19 -30 23 -95 4 -71 7 -81 23 -81 17 0
19 9 19 88 0 75 -3 92 -20 110 -27 29 -66 38 -104 23 -20 -7 -32 -8 -34 -1 -4
11 -35 14 -45 3z"/>
<path d="M16474 1601 c-62 -38 -68 -139 -12 -186 45 -38 110 -35 151 7 32 33
32 33 9 36 -13 2 -32 -4 -41 -12 -26 -24 -77 -20 -95 6 -43 61 18 159 73 119
61 -44 101 -35 59 14 -32 37 -100 44 -144 16z"/>
<path d="M16704 1586 c-28 -28 -34 -42 -34 -75 0 -48 21 -96 49 -111 25 -13
87 -13 112 0 13 7 19 7 19 0 0 -5 11 -10 25 -10 l25 0 0 115 c0 109 -1 115
-20 115 -11 0 -23 -7 -26 -15 -5 -13 -8 -13 -27 0 -38 26 -85 19 -123 -19z
m126 -26 c25 -25 27 -86 3 -112 -23 -26 -78 -24 -97 4 -25 35 -20 83 10 107
33 26 58 27 84 1z"/>
<path d="M17274 1610 c-57 -23 -82 -107 -49 -170 20 -38 43 -50 99 -50 61 0
105 37 113 96 12 93 -75 160 -163 124z m91 -55 c47 -46 23 -125 -37 -125 -44
0 -68 25 -68 72 0 71 58 101 105 53z"/>
<path d="M17487 1613 c-4 -3 -7 -55 -7 -115 l0 -108 25 0 c24 0 25 2 25 75 0
81 18 115 59 115 39 0 51 -26 51 -111 0 -78 0 -79 25 -79 25 0 25 1 25 80 0
43 -5 90 -11 103 -19 42 -78 59 -122 36 -16 -9 -22 -9 -25 0 -4 12 -35 15 -45
4z"/>
<path d="M17765 1595 c-46 -45 -26 -82 59 -111 34 -12 46 -21 44 -33 -4 -22
-66 -28 -74 -7 -7 19 -54 21 -54 3 0 -8 10 -23 23 -35 31 -30 108 -31 137 -2
41 41 18 86 -56 110 -36 12 -49 22 -49 36 0 24 46 31 65 10 7 -9 23 -16 36
-16 21 0 22 2 13 24 -23 50 -104 62 -144 21z"/>
</g>
</svg>
